<svg width="651" height="207" viewBox="0 0 651 207" xmlns="http://www.w3.org/2000/svg"><title>logo</title><g fill="none" fill-rule="evenodd"><path fill="#FFF" d="M0 207h651.141V-.026H0z"/><path fill="#F58C54" d="M127.445 48l54.445 28v56l-54.445 28L73 132V76z"/><path d="M120.867 107.73l4.877-13.024c1.039-2.853 2.239-7.756 2.239-7.756h.159s1.199 4.903 2.239 7.756l4.876 13.024h-14.39zM102 128.948h6.315c3.998 0 5.357-.951 6.636-4.244l3.518-9.072h19.186l3.518 9.072c1.28 3.293 2.718 4.244 6.716 4.244h6.236v-8.121h-1.28c-1.358 0-1.999-.293-2.477-1.61L133.579 77h-10.953l-16.869 42.217c-.479 1.317-1.118 1.61-2.478 1.61H102v8.121z" fill="#FFF"/><g fill="#F58C54"><path d="M259.537 107.939l-6.839-18.46c-.879-2.423-1.987-6.687-1.987-6.687h-.143s-1.102 4.264-1.989 6.687l-6.767 18.46h17.725zm-32.131 16.399h.953c1.325 0 2.131-.22 2.647-1.623L247.92 77.2h5.515l16.916 45.515c.514 1.403 1.244 1.623 2.646 1.623h.879v4.557h-2.352c-3.678 0-4.778-.736-6.103-4.264l-4.486-12.207h-20.517l-4.557 12.207c-1.33 3.528-2.359 4.264-6.035 4.264h-2.42v-4.557zM281.475 83.522h4.855V77.2h-4.855v6.322zm.148 14.34c0-1.03-.591-1.615-1.622-1.615h-3.083V91.91h5.223c3.16 0 4.482 1.324 4.482 4.485v26.543c0 1.102.588 1.617 1.617 1.617h3.09v4.34h-5.221c-3.163 0-4.486-1.322-4.486-4.484V97.862zM299.724 97.862c0-1.03-.586-1.615-1.617-1.615h-3.087V91.91h5.149c3.088 0 4.482 1.245 4.482 4.191v2.497c0 1.545-.149 2.795-.149 2.795h.149c1.767-5.59 5.888-9.853 11.695-9.853 1.029 0 1.982.221 1.982.221v4.929s-.881-.15-1.838-.15c-5.22 0-9.119 4.119-10.736 9.561-.737 2.354-1.031 4.85-1.031 7.202v15.592h-4.999V97.862M341.949 125.364c6.537 0 11.908-5.516 11.908-14.929 0-9.042-4.855-14.849-11.693-14.849-6.172 0-11.987 4.409-11.987 14.929 0 7.423 3.832 14.849 11.772 14.849zm-16.623-42.207c0-1.031-.586-1.617-1.615-1.617h-3.09V77.2h5.223c3.161 0 4.483 1.323 4.483 4.484v13.387c0 1.689-.15 3.011-.15 3.011h.15s3.09-7.057 12.58-7.057c9.927 0 16.1 7.946 16.1 19.41 0 11.694-6.988 19.341-16.693 19.341-8.819 0-12.137-7.131-12.137-7.131h-.143s.143 1.25.143 3.018v3.232h-4.851V83.157zM368.521 97.862c0-1.03-.592-1.615-1.617-1.615h-3.09V91.91h5.144c3.09 0 4.485 1.245 4.485 4.191v2.497c0 1.545-.145 2.795-.145 2.795h.145c1.767-5.59 5.886-9.853 11.694-9.853 1.029 0 1.98.221 1.98.221v4.929s-.88-.15-1.831-.15c-5.221 0-9.125 4.119-10.742 9.561-.731 2.354-1.029 4.85-1.029 7.202v15.592h-4.994V97.862M402.65 125.512c7.058 0 11.323-7.353 11.323-13.753v-1.689h-2.132c-5.809 0-17.429.152-17.429 8.454 0 3.461 2.723 6.988 8.238 6.988zm9.269-19.411h2.054v-.443c0-7.718-2.796-10.443-9.563-10.443-1.831 0-7.203.516-7.203 3.239v2.353h-4.777v-3.531c0-5.151 8.819-6.251 12.058-6.251 11.695 0 14.483 6.251 14.483 14.189v17.724c0 1.102.588 1.617 1.617 1.617h3.09v4.34h-5.072c-3.161 0-4.412-1.395-4.412-4.412 0-1.617.072-2.719.072-2.719h-.145c.073 0-3.017 8.012-12.279 8.012-6.18 0-12.573-3.6-12.573-10.957 0-12.28 16.249-12.718 22.65-12.718zM431.426 83.157c0-1.031-.585-1.617-1.616-1.617h-3.09V77.2h5.22c3.162 0 4.486 1.101 4.486 4.268v24.56h3.825c1.39 0 3.162-.443 4.192-1.765l9.485-12.353h6.1l-10.665 13.527c-1.837 2.28-2.789 2.646-2.789 2.646v.149s1.103.516 2.277 2.719l6.693 11.987c.658 1.251 1.393 1.617 3.384 1.617h1.98v4.34h-3.455c-3.677 0-4.706-.586-6.399-3.676L443.7 111.98c-.804-1.465-2.567-1.615-3.891-1.615h-3.383v18.53h-5V83.157M492.702 106.615c-.301-7.644-5.005-11.4-10.44-11.4-6.108 0-11.474 3.971-12.733 11.4h23.173zm-10.372-15.59c10.216 0 15.521 7.866 15.521 17.058 0 .885-.156 2.502-.156 2.502h-28.38c.143 9.34 6.694 14.706 14.332 14.706 6.768 0 11.116-4.556 11.116-4.556l2.417 3.748s-5.365 5.293-13.745 5.293c-10.959 0-19.34-7.94-19.34-19.341 0-12.13 8.308-19.41 18.235-19.41zM506.544 128.895h5.666v-5.879h-5.666zM523.908 83.522h4.851V77.2h-4.851v6.322zm.145 14.34c0-1.03-.588-1.615-1.618-1.615h-3.089V91.91h5.22c3.162 0 4.491 1.324 4.491 4.485v26.543c0 1.102.589 1.617 1.617 1.617h3.09v4.34h-5.221c-3.162 0-4.49-1.322-4.49-4.484V97.862zM558.252 125.291c7.868 0 14.348-6.472 14.348-15.069 0-8.391-6.48-14.636-14.348-14.636-7.938 0-14.404 6.245-14.404 14.636 0 8.597 6.466 15.069 14.404 15.069zm-.07-34.266c10.814 0 19.554 8.239 19.554 19.197 0 11.171-8.74 19.554-19.484 19.554-10.812 0-19.555-8.383-19.555-19.554 0-10.958 8.743-19.197 19.485-19.197z"/></g></g></svg>
