<svg viewBox="0 0 783 925" xmlns="http://www.w3.org/2000/svg" fill-rule="evenodd" clip-rule="evenodd" stroke-linejoin="round" stroke-miterlimit="2">
  <path d="M4704.2,5003.6C2694.6,4785.4 1358.9,2910.1 1826.5,970.1C1908,636.8 2658.28,-490.448 3488.54,-1706.25C4316.08,-2924.45 4992.8,-4037.11 5000,-4037.11C5007.2,-4037.11 5680.89,-2950.85 6485.66,-1768.65C7290.31,-584.048 8162.1,775.8 8241.3,1265C8279.7,1502.4 8274.9,2042 8229.3,2291.4C7989.5,3646.3 6951.1,4699 5601,4958C5397.2,4996.4 4881.6,5022.8 4704.2,5003.6ZM5280.89,2720.69C6020.5,2492.95 6246.22,1555.85 5694.02,1005.74C5299.04,610.765 4650.11,612.782 4253.11,1009.77C3706.96,1555.93 3920.58,2464.79 4652.12,2714.64C4827.51,2775.06 5097.52,2777.08 5280.89,2720.69Z" fill-rule="nonzero" transform="matrix(.1 0 0 -.1 -133.406 511)" fill="#fff" />
  <path d="M0.229,-0.103L0.229,-0.289L0.042,-0.289L0.042,-0.417L0.229,-0.417L0.229,-0.604L0.354,-0.604L0.354,-0.417L0.542,-0.417L0.542,-0.289L0.354,-0.289L0.354,-0.103L0.229,-0.103Z" fill-rule="nonzero" transform="matrix(402.80941 0 0 402.81 531.984 916.043)" fill="#fff" />
</svg>
