<svg xmlns="http://www.w3.org/2000/svg" viewBox="113 10 181 193">
  <g fill="none" fill-rule="evenodd">
    <path d="M258.6148 145.2415c-5.6597 2.0553-22.447 8.8693-25.3752 10.0259-1.6463.6477-2.4595 2.5049-1.8116 4.1504.648 1.6523 2.5125 2.4585 4.1587 1.8109 2.9554-1.1632 19.6695-7.9572 25.216-9.9664 3.1209-1.1301 4.1258-.6477 4.3571-.4758a1.477 1.477 0 01.2182 1.791c-.2843.423-.6611.7865-1.0975 1.064-11.1076 6.1332-50.632 27.8641-50.632 27.8641-6.2743 3.4566-13.4216 4.005-22.4723 1.7315-7.4117-1.8638-44.708-12.828-46.1161-13.2312-.9347.0201-1.8616.3689-2.7807 1.0464-.919.6775-1.352 1.331-1.2988 1.9606-.0132.7204 0 1.454.0199 2.1877.0066.2842-.0265.4428-.0133.4824a1.6715 1.6715 0 01-.509.0793l-.9786.033c-1.8843.0662-3.6761.1323-5.4613.1058a89.1744 89.1744 0 01-13.1703-35.503c-.3438-2.3859-.5686-4.7782-.8066-7.3029l-.0132-.1256c4.8661-.1454 13.911-.3899 19.187-.5089l.0067-.0066a3.888 3.888 0 01.681.0397c.033.185.0529.3767.0595.5618.2623 1.7242.6016 2.9377 1.018 3.6406.4165.7029 1.1879 1.364 2.3142 1.9837 2.1686-.0463 4.3307-.1256 6.4926-.205 9.739-.3634 18.9417-.707 27.9276 2.1811 2.6183.8988 5.1572 2.0158 7.5836 3.3442 3.7092 2.1413 7.762 3.6217 11.9803 4.3685a140.1288 140.1288 0 0021.4873 1.7977c1.1439-.0793 2.2678.3304 3.0877 1.1235a3.5707 3.5707 0 011.0314 2.6832 3.6266 3.6266 0 01-1.0248 2.6766c-.6943.7137-1.6463 1.117-2.6447 1.1103-3.9405.1917-33.117.8592-33.117.8592v.0066c-.8463.0198-1.653.3767-2.2414.9914-.5818.6212-.8992 1.4407-.8793 2.2933.0066.8526.3636 1.6655.9851 2.2537.6149.5882 1.448.8988 2.301.8657 0 0 29.2359-.6675 33.2693-.8657 4.0331-.1983 7.577-2.7362 9.0514-6.49a10.2524 10.2524 0 00-2.2017-10.9247 10.5 10.5 0 00-7.7356-2.9938 127.8115 127.8115 0 01-20.3905-1.7183 30.5969 30.5969 0 01-10.0167-3.734c-2.7439-1.4937-5.6067-2.7494-8.5621-3.7473-10.0563-3.2319-20.2585-2.855-30.1297-2.485-1.071.0396-2.1487.0793-3.2198.1123-.0727-1.8042-.8992-3.4896-2.281-4.6593-1.3753-1.1632-3.1803-1.6985-4.972-1.4738-6.0233.1387-21.858.5617-22.8228.641l-3.2728.2644.3438 3.2649c.1256 1.1698.2314 2.3263.3438 3.483.238 2.4916.4827 5.0625.8397 7.6003 1.9437 13.7336 6.8629 26.8726 14.4067 38.518 1.005 1.4606 2.6315 2.3791 4.4034 2.4717 2.1554.0529 4.3109-.0198 6.3934-.0925l.972-.033c3.0347.1057 5.7322-1.9299 6.4727-4.871 1.3356.39 34.9028 10.2639 42.4398 12.1607v-.0066c3.7753.9913 7.6563 1.5068 11.5571 1.5465 5.4348.066 10.7969-1.269 15.5705-3.873 0 0 39.5302-21.7308 50.6454-27.8708 1.2827-.7468 2.3801-1.7646 3.2264-2.9806 2.3471-3.4102 1.6463-8.0564-1.6066-10.614-3.7685-2.8235-8.7537-1.0192-10.3933-.4178z" fill="#fff" fill-rule="nonzero" />
    <g stroke="#fff">
      <path d="M245.9796 72.5132c-1.6875-1.0645-3.2015-2.3959-4.889-3.7273C236.3789 64.882 230.424 60 221 60s-15.3787 4.8819-20.0907 8.786c-1.6874 1.3313-3.2014 2.6627-4.8889 3.7272C186.5102 78.8132 181 88.8434 181 100.116 181 119.3763 198.9547 135 221 135s40-15.6237 40-34.884c0-11.2717-5.5104-21.3026-15.0204-27.6028z" stroke-width="7" />
      <g stroke-linecap="round">
        <path d="M202.14 116.3404c6.3505 2.1844 12.7407 3.2766 19.1707 3.2766s12.8864-1.0922 19.3693-3.2766M201.32 105.6915c6.6898 1.0922 13.3864 1.6383 20.09 1.6383s13.4002-.5461 20.09-1.6383M210.34 95.8005c3.6862-.4645 7.3762-.6968 11.07-.6968s7.3838.2323 11.07.6968" stroke-width="5" />
        <path d="M202.96 85.2128c2.573-.85 5.5784-2.26 9.0163-4.2301 5.157-2.955 6.2614-8.0572 9.4605-8.0572 3.2567 0 5.5158 6.1861 8.9805 8.0572 2.3099 1.2474 5.4575 2.6574 9.4427 4.23" stroke-width="7" />
      </g>
    </g>
    <g stroke="#fff" stroke-linecap="round" stroke-linejoin="round" stroke-width="4">
      <path d="M146.8317 33l30.8399 27M293.2565 33L262.92 60M220.1111 2.7363V40" />
    </g>
  </g>
</svg>
