<svg width="470" height="470" viewBox="0 0 470 470" fill="none" xmlns="http://www.w3.org/2000/svg">
<rect width="470" height="470" rx="235" fill="#FDC276"/>
<rect x="11" y="11" width="448" height="448" rx="224" stroke="black" stroke-width="4"/>
<g clip-path="url(#clip0)">
<path d="M109.266 177.058H94.7903V191.892H85.8133V154.654H110.724V161.585H94.7903V170.153H109.266V177.058Z" fill="black"/>
<path d="M124.023 191.892H115.072V154.654H124.023V191.892Z" fill="black"/>
<path d="M161.363 191.892H152.437L139.24 168.721V191.892H130.263V154.654H139.24L152.412 177.825V154.654H161.363V191.892Z" fill="black"/>
<path d="M167.041 191.892V154.654H179.036C182.326 154.654 185.284 155.404 187.91 156.905C190.536 158.388 192.582 160.494 194.048 163.222C195.532 165.933 196.282 168.976 196.299 172.352V174.066C196.299 177.476 195.574 180.536 194.125 183.247C192.693 185.941 190.664 188.055 188.038 189.59C185.429 191.107 182.514 191.875 179.291 191.892H167.041ZM176.018 161.585V184.986H179.138C181.712 184.986 183.69 184.074 185.071 182.25C186.452 180.408 187.143 177.68 187.143 174.066V172.455C187.143 168.857 186.452 166.146 185.071 164.322C183.69 162.497 181.678 161.585 179.036 161.585H176.018Z" fill="black"/>
<path d="M115.046 230.396H103.87V260.703H94.8926V230.396H83.9207V223.465H115.046V230.396Z" fill="black"/>
<path d="M149.982 260.703H141.056V245.153H127.834V260.703H118.857V223.465H127.834V238.247H141.056V223.465H149.982V260.703Z" fill="black"/>
<path d="M178.78 244.923H164.662V253.797H181.337V260.703H155.685V223.465H181.388V230.396H164.662V238.247H178.78V244.923Z" fill="black"/>
<path d="M97.6035 292.276L105.916 318.184L114.202 292.276H126.018V329.513H117.015V320.818L117.885 303.017L108.882 329.513H102.949L93.9207 302.992L94.7903 320.818V329.513H85.8133V292.276H97.6035Z" fill="black"/>
<path d="M153.358 322.557H141.056L138.908 329.513H129.317L142.974 292.276H151.414L165.174 329.513H155.532L153.358 322.557ZM143.204 315.626H151.21L147.194 302.71L143.204 315.626Z" fill="black"/>
<path d="M180.57 315.652L176.887 319.692V329.513H167.91V292.276H176.887V308.695L180.007 303.964L188.038 292.276H199.138L186.555 308.746L199.138 329.513H188.498L180.57 315.652Z" fill="black"/>
<path d="M224.509 313.733H210.391V322.608H227.066V329.513H201.414V292.276H227.117V299.207H210.391V307.058H224.509V313.733Z" fill="black"/>
<path d="M244.56 316.368H239.7V329.513H230.723V292.276H245.378C249.794 292.276 253.247 293.256 255.736 295.217C258.225 297.178 259.47 299.948 259.47 303.529C259.47 306.12 258.942 308.269 257.884 309.974C256.844 311.679 255.208 313.06 252.974 314.117L260.749 329.13V329.513H251.133L244.56 316.368ZM239.7 309.437H245.378C247.083 309.437 248.362 308.993 249.214 308.107C250.084 307.203 250.519 305.95 250.519 304.347C250.519 302.745 250.084 301.491 249.214 300.588C248.345 299.667 247.066 299.207 245.378 299.207H239.7V309.437Z" fill="black"/>
<path d="M284.099 319.616C284.099 318.303 283.63 317.28 282.693 316.547C281.772 315.814 280.144 315.055 277.808 314.27C275.472 313.486 273.562 312.727 272.079 311.994C267.254 309.624 264.841 306.368 264.841 302.224C264.841 300.161 265.438 298.346 266.631 296.777C267.842 295.191 269.547 293.964 271.746 293.094C273.946 292.207 276.418 291.764 279.163 291.764C281.84 291.764 284.236 292.242 286.35 293.196C288.481 294.151 290.135 295.515 291.311 297.288C292.488 299.045 293.076 301.057 293.076 303.324H284.125C284.125 301.807 283.656 300.63 282.718 299.795C281.797 298.959 280.544 298.542 278.959 298.542C277.356 298.542 276.086 298.9 275.148 299.616C274.227 300.315 273.767 301.21 273.767 302.301C273.767 303.256 274.278 304.126 275.301 304.91C276.324 305.677 278.123 306.479 280.698 307.314C283.272 308.132 285.387 309.019 287.04 309.974C291.064 312.293 293.076 315.49 293.076 319.565C293.076 322.821 291.849 325.379 289.393 327.237C286.938 329.096 283.571 330.025 279.291 330.025C276.273 330.025 273.537 329.488 271.081 328.414C268.643 327.322 266.802 325.839 265.557 323.964C264.329 322.071 263.716 319.897 263.716 317.442H272.718C272.718 319.437 273.23 320.912 274.253 321.866C275.293 322.804 276.972 323.273 279.291 323.273C280.774 323.273 281.942 322.958 282.795 322.327C283.664 321.679 284.099 320.775 284.099 319.616Z" fill="black"/>
<path fill-rule="evenodd" clip-rule="evenodd" d="M310.087 82C308.953 82 308.033 82.9196 308.033 84.0541V122.325C308.033 123.459 308.953 124.379 310.087 124.379C311.221 124.379 312.141 123.459 312.141 122.325V84.0541C312.141 82.9196 311.221 82 310.087 82ZM233.282 113.782C234.029 112.929 235.327 112.843 236.18 113.59L267.854 141.32C268.707 142.067 268.793 143.365 268.046 144.218C267.299 145.072 266.001 145.158 265.147 144.411L233.474 116.681C232.621 115.934 232.534 114.636 233.282 113.782ZM349.631 230.411C345.175 232.029 333.999 236.521 327.672 239.064L327.664 239.067L327.621 239.084C325.722 239.848 324.266 240.433 323.57 240.708C321.88 241.373 321.044 243.28 321.71 244.97C322.375 246.667 324.29 247.495 325.981 246.83C326.744 246.53 328.4 245.864 330.543 245.002L330.552 244.998C336.933 242.433 347.616 238.138 351.879 236.594C355.084 235.434 356.116 235.929 356.353 236.105C356.835 236.594 356.931 237.348 356.577 237.945C356.285 238.379 355.898 238.753 355.45 239.038C344.042 245.337 303.45 267.655 303.45 267.655C297.006 271.205 289.665 271.768 280.37 269.433C273.866 267.798 244.955 259.339 235.774 256.652L235.749 256.645C234.199 256.192 233.217 255.904 233.008 255.844C232.048 255.865 231.096 256.223 230.152 256.919C229.208 257.615 228.763 258.286 228.818 258.933C228.804 259.673 228.818 260.426 228.838 261.179C228.842 261.345 228.833 261.469 228.827 261.553C228.822 261.617 228.819 261.657 228.825 261.675C228.655 261.729 228.478 261.756 228.302 261.756L227.297 261.79L227.099 261.797C225.236 261.863 223.459 261.925 221.688 261.899C214.619 250.849 210.009 238.42 208.162 225.436C207.811 223.001 207.581 220.559 207.338 217.984L207.333 217.936L207.32 217.807C212.317 217.658 221.607 217.407 227.025 217.284L227.032 217.278C227.27 217.271 227.501 217.284 227.732 217.318C227.766 217.508 227.786 217.705 227.793 217.895C228.062 219.666 228.411 220.913 228.838 221.634C229.266 222.356 230.058 223.035 231.215 223.672C233.442 223.624 235.663 223.543 237.883 223.461L237.885 223.461H237.885C247.887 223.088 257.337 222.735 266.565 225.701C269.255 226.624 271.862 227.771 274.354 229.136C278.163 231.335 282.326 232.855 286.658 233.622C293.958 234.803 301.332 235.421 308.726 235.469C309.901 235.387 311.055 235.808 311.897 236.623C312.624 237.356 313.004 238.353 312.957 239.378C312.997 240.403 312.617 241.394 311.904 242.127C311.191 242.86 310.213 243.274 309.188 243.268C305.141 243.464 275.176 244.15 275.176 244.15V244.157C274.307 244.177 273.478 244.544 272.874 245.175C272.276 245.813 271.95 246.655 271.971 247.53C271.978 248.406 272.344 249.241 272.983 249.845C273.614 250.449 274.47 250.768 275.346 250.734C275.346 250.734 305.372 250.048 309.514 249.845C313.656 249.641 317.296 247.035 318.81 243.179C320.331 239.317 319.449 234.932 316.549 231.959C314.437 229.889 311.565 228.776 308.604 228.885C301.59 228.858 294.589 228.267 287.663 227.12C284.037 226.455 280.553 225.158 277.375 223.285C274.557 221.751 271.617 220.461 268.582 219.436C258.254 216.117 247.776 216.504 237.638 216.884C236.538 216.925 235.431 216.966 234.331 217C234.256 215.147 233.408 213.416 231.988 212.214C230.576 211.02 228.722 210.47 226.882 210.701C220.696 210.843 204.433 211.278 203.442 211.359L200.081 211.631L200.434 214.984C200.529 215.87 200.613 216.749 200.697 217.626C200.727 217.938 200.757 218.249 200.787 218.561L200.793 218.622C201.036 221.162 201.286 223.781 201.65 226.367C203.646 240.471 208.698 253.965 216.446 265.926C217.478 267.426 219.148 268.369 220.968 268.464C223.182 268.518 225.396 268.444 227.534 268.369L228.533 268.335C231.649 268.444 234.42 266.353 235.18 263.333L235.558 263.443L235.98 263.567C241.419 265.163 271.589 274.015 278.767 275.822V275.815C282.644 276.833 286.63 277.363 290.637 277.403C296.218 277.471 301.725 276.1 306.628 273.426C306.628 273.426 347.226 251.108 358.642 244.802C359.959 244.035 361.086 242.989 361.956 241.741C364.366 238.238 363.646 233.467 360.306 230.84C356.435 227.94 351.315 229.793 349.631 230.411ZM383.844 113.601C384.691 112.847 385.99 112.922 386.744 113.77C387.498 114.617 387.422 115.916 386.575 116.67L355.419 144.4C354.571 145.154 353.273 145.078 352.519 144.231C351.764 143.383 351.84 142.085 352.687 141.331L383.844 113.601ZM341.994 167.307C342.713 167.471 343.426 167.634 344.026 167.964L344.024 167.966C344.855 168.417 347.156 170.386 347.172 171.364C347.192 172.126 346.652 172.913 345.905 173.67L343.249 176.334C342.485 177.081 341.689 177.616 340.932 177.596C339.957 177.57 337.995 175.266 337.545 174.43C337.217 173.828 337.054 173.112 336.891 172.392C336.723 171.651 336.554 170.905 336.201 170.275C334.829 167.856 332.819 167.227 329.844 167.109L327.404 167.366C326.346 167.525 325.224 168.616 324.181 169.631C323.906 169.898 323.637 170.16 323.375 170.399C321.64 171.966 320.119 173.578 318.639 175.168C318.238 174.818 317.174 174.054 315.355 174.054C313.661 174.054 311.849 174.736 309.939 176.074L309.074 175.209C310.414 173.806 311.843 172.48 313.305 171.124C315.107 169.452 316.959 167.735 318.752 165.771C318.992 165.509 319.255 165.239 319.523 164.964C320.538 163.923 321.627 162.806 321.79 161.747C322.714 155.719 310.474 153.127 303.473 154.113C303.336 152.969 303.985 152.734 304.634 152.5C304.788 152.445 304.941 152.389 305.084 152.321C304.333 152.105 303.679 151.688 304.343 150.777C306.396 149.707 308.836 149.688 311.441 149.668C311.782 149.665 312.126 149.662 312.472 149.657C323.504 149.498 331.427 154.545 336.729 160.244C336.832 163.228 337.458 165.24 339.882 166.615C340.513 166.969 341.256 167.138 341.994 167.307ZM302.181 180.195L304.086 182.1L304.088 182.103C300.889 187.045 302.835 190.077 303.187 190.571C303.187 190.571 303.666 191.15 304.469 192.103C298.692 198.663 292.785 205.107 286.752 211.433C286.42 211.782 286.059 212.241 285.682 212.72C284.747 213.908 283.714 215.22 282.778 215.299C281.254 215.478 279.918 213.948 278.74 212.598C278.36 212.163 277.996 211.747 277.648 211.413C277.364 211.139 277.031 210.85 276.681 210.546C275.273 209.325 273.601 207.873 273.772 206.265C273.872 205.308 275.198 204.271 276.39 203.34C276.859 202.973 277.306 202.623 277.651 202.301C285.399 194.965 294.099 186.996 302.181 180.195ZM321.235 182.653C322.199 182.539 323.207 182.419 323.7 182.846L323.697 182.849C331.584 189.711 343.615 200.671 343.615 203.76C343.615 206.056 341.774 208.985 339.393 211.346C337.005 213.703 334.101 215.567 331.805 215.567C328.719 215.567 317.754 203.541 310.891 195.655C310.467 195.16 310.587 194.154 310.701 193.19C310.806 192.309 310.907 191.463 310.582 191.078C310.213 190.649 309.305 190.808 308.465 190.954C307.742 191.08 307.071 191.198 306.837 190.924C305.787 189.68 305.175 188.942 305.175 188.942C305.175 188.942 303.491 186.568 307.481 181.858L287.424 161.799C286.405 160.782 282.729 161.189 282.729 161.189L277.324 151.699L279.625 149.395L289.113 154.8C289.113 154.8 288.706 158.473 289.723 159.49L309.748 179.516C314.768 174.991 316.989 177.127 316.989 177.127L318.971 178.79C319.245 179.023 319.128 179.696 319.002 180.419C318.855 181.259 318.697 182.166 319.126 182.532C319.508 182.858 320.353 182.758 321.235 182.653Z" fill="black"/>
</g>
<defs>
<clipPath id="clip0">
<path d="M83 82H387V330.541H83V82Z" fill="white"/>
</clipPath>
</defs>
</svg>
