<svg height="242" width="296" xmlns="http://www.w3.org/2000/svg"><g fill="none" fill-rule="evenodd"><path d="M258.6148 145.2415c-5.6597 2.0553-22.447 8.8693-25.3752 10.0259-1.6463.6477-2.4595 2.5049-1.8116 4.1504.648 1.6523 2.5125 2.4585 4.1587 1.8109 2.9554-1.1632 19.6695-7.9572 25.216-9.9664 3.1209-1.1301 4.1258-.6477 4.3571-.4758a1.477 1.477 0 01.2182 1.791c-.2843.423-.6611.7865-1.0975 1.064-11.1076 6.1332-50.632 27.8641-50.632 27.8641-6.2743 3.4566-13.4216 4.005-22.4723 1.7315-7.4117-1.8638-44.708-12.828-46.1161-13.2312-.9347.0201-1.8616.3689-2.7807 1.0464-.919.6775-1.352 1.331-1.2988 1.9606-.0132.7204 0 1.454.0199 2.1877.0066.2842-.0265.4428-.0133.4824a1.6715 1.6715 0 01-.509.0793l-.9786.033c-1.8843.0662-3.6761.1323-5.4613.1058a89.1744 89.1744 0 01-13.1703-35.503c-.3438-2.3859-.5686-4.7782-.8066-7.3029l-.0132-.1256c4.8661-.1454 13.911-.3899 19.187-.5089l.0067-.0066a3.888 3.888 0 01.681.0397c.033.185.0529.3767.0595.5618.2623 1.7242.6016 2.9377 1.018 3.6406.4165.7029 1.1879 1.364 2.3142 1.9837 2.1686-.0463 4.3307-.1256 6.4926-.205 9.739-.3634 18.9417-.707 27.9276 2.1811 2.6183.8988 5.1572 2.0158 7.5836 3.3442 3.7092 2.1413 7.762 3.6217 11.9803 4.3685a140.1288 140.1288 0 0021.4873 1.7977c1.1439-.0793 2.2678.3304 3.0877 1.1235a3.5707 3.5707 0 011.0314 2.6832 3.6266 3.6266 0 01-1.0248 2.6766c-.6943.7137-1.6463 1.117-2.6447 1.1103-3.9405.1917-33.117.8592-33.117.8592v.0066c-.8463.0198-1.653.3767-2.2414.9914-.5818.6212-.8992 1.4407-.8793 2.2933.0066.8526.3636 1.6655.9851 2.2537.6149.5882 1.448.8988 2.301.8657 0 0 29.2359-.6675 33.2693-.8657 4.0331-.1983 7.577-2.7362 9.0514-6.49a10.2524 10.2524 0 00-2.2017-10.9247 10.5 10.5 0 00-7.7356-2.9938 127.8115 127.8115 0 01-20.3905-1.7183 30.5969 30.5969 0 01-10.0167-3.734c-2.7439-1.4937-5.6067-2.7494-8.5621-3.7473-10.0563-3.2319-20.2585-2.855-30.1297-2.485-1.071.0396-2.1487.0793-3.2198.1123-.0727-1.8042-.8992-3.4896-2.281-4.6593-1.3753-1.1632-3.1803-1.6985-4.972-1.4738-6.0233.1387-21.858.5617-22.8228.641l-3.2728.2644.3438 3.2649c.1256 1.1698.2314 2.3263.3438 3.483.238 2.4916.4827 5.0625.8397 7.6003 1.9437 13.7336 6.8629 26.8726 14.4067 38.518 1.005 1.4606 2.6315 2.3791 4.4034 2.4717 2.1554.0529 4.3109-.0198 6.3934-.0925l.972-.033c3.0347.1057 5.7322-1.9299 6.4727-4.871 1.3356.39 34.9028 10.2639 42.4398 12.1607v-.0066c3.7753.9913 7.6563 1.5068 11.5571 1.5465 5.4348.066 10.7969-1.269 15.5705-3.873 0 0 39.5302-21.7308 50.6454-27.8708 1.2827-.7468 2.3801-1.7646 3.2264-2.9806 2.3471-3.4102 1.6463-8.0564-1.6066-10.614-3.7685-2.8235-8.7537-1.0192-10.3933-.4178z" fill="#fff" fill-rule="nonzero"/><g stroke="#fff"><path d="M245.9796 72.5132c-1.6875-1.0645-3.2015-2.3959-4.889-3.7273C236.3789 64.882 230.424 60 221 60s-15.3787 4.8819-20.0907 8.786c-1.6874 1.3313-3.2014 2.6627-4.8889 3.7272C186.5102 78.8132 181 88.8434 181 100.116 181 119.3763 198.9547 135 221 135s40-15.6237 40-34.884c0-11.2717-5.5104-21.3026-15.0204-27.6028z" stroke-width="7"/><g stroke-linecap="round"><path d="M202.14 116.3404c6.3505 2.1844 12.7407 3.2766 19.1707 3.2766s12.8864-1.0922 19.3693-3.2766M201.32 105.6915c6.6898 1.0922 13.3864 1.6383 20.09 1.6383s13.4002-.5461 20.09-1.6383M210.34 95.8005c3.6862-.4645 7.3762-.6968 11.07-.6968s7.3838.2323 11.07.6968" stroke-width="5"/><path d="M202.96 85.2128c2.573-.85 5.5784-2.26 9.0163-4.2301 5.157-2.955 6.2614-8.0572 9.4605-8.0572 3.2567 0 5.5158 6.1861 8.9805 8.0572 2.3099 1.2474 5.4575 2.6574 9.4427 4.23" stroke-width="7"/></g></g><g stroke="#fff" stroke-linecap="round" stroke-linejoin="round" stroke-width="4"><path d="M146.8317 33l30.8399 27M293.2565 33L262.92 60M220.1111 2.7363V40"/></g><path d="M25.5747 92.5566H11.48V107H2.7393V70.7422H26.994v6.7485H11.48v8.3423h14.0947zM39.9434 107h-8.7159V70.7422h8.7159zm36.3574 0h-8.691L54.7604 84.4385V107h-8.7408V70.7422h8.7408L67.585 93.3037V70.7422h8.7158zm5.5283 0V70.7422h11.6792c3.2041 0 6.0845.7263 8.6411 2.179 2.5567 1.4526 4.553 3.5029 5.989 6.1508 1.436 2.648 2.1624 5.6155 2.179 8.9026v1.6685c0 3.3203-.7014 6.2961-2.1043 8.9275-1.4028 2.6313-3.3784 4.6899-5.9267 6.1757-2.5484 1.4859-5.3914 2.2371-8.529 2.2537zm8.7407-29.5093v22.7857h3.0381c2.5069 0 4.4326-.8924 5.7774-2.677 1.3447-1.7847 2.017-4.4368 2.017-7.9563v-1.5689c0-3.503-.6723-6.1426-2.017-7.919-1.3448-1.7763-3.3037-2.6645-5.877-2.6645zm-59.3672 67H20.3203V174h-8.7407v-29.5093H.8965v-6.7485h30.3061zM65.1943 174h-8.6909v-15.1406H43.629V174h-8.7407v-36.2578h8.7407v14.3935h12.8745v-14.3935h8.691zm28.0152-15.3647H79.4634v8.641h16.2363V174h-24.977v-36.2578h25.0268v6.7485H79.4634v7.645h13.746zm-78.9903 46.1069l8.0933 25.226 8.0684-25.226h11.5048V241h-8.7656v-8.4668l.8467-17.332L25.2012 241h-5.7774l-8.7905-25.8237.8467 17.3569V241H2.7393v-36.2578zm54.2622 29.4844h-11.978L54.4116 241h-9.3384l13.2979-36.2578h8.2178L79.9863 241h-9.3882zm-9.8862-6.7486h7.7944L62.48 214.9023zm42.7324 3.8848c0-1.2783-.4524-2.2744-1.3571-2.9883-.9048-.7139-2.4944-1.4526-4.7688-2.2163-2.2745-.7637-4.1338-1.5024-5.5782-2.2163-4.6982-2.3076-7.0473-5.4785-7.0473-9.5127 0-2.0088.5852-3.781 1.7556-5.3167s2.8264-2.7309 4.968-3.5859 4.5488-1.2825 7.2217-1.2825c2.6064 0 4.943.4649 7.01 1.3946s3.673 2.2536 4.8186 3.9719c1.1455 1.7183 1.7183 3.6814 1.7183 5.8894h-8.7159c0-1.4775-.4523-2.623-1.3571-3.4365-.9048-.8135-2.1292-1.2202-3.6731-1.2202-1.5606 0-2.7932.3444-3.698 1.0334s-1.3572 1.5647-1.3572 2.6272c0 .9297.498 1.7722 1.4941 2.5276.9961.7554 2.7476 1.5356 5.2544 2.3408 2.5069.8052 4.5654 1.6726 6.1758 2.6023 3.918 2.2578 5.877 5.3706 5.877 9.3384 0 3.1709-1.1953 5.6611-3.586 7.4707-2.3906 1.8096-5.6694 2.7143-9.8364 2.7143-2.9385 0-5.5989-.527-7.9812-1.5813-2.3823-1.0542-4.1753-2.4985-5.379-4.333s-1.8053-3.947-1.8053-6.3376h8.7656c0 1.9424.5022 3.3743 1.5066 4.2956 1.0044.9214 2.6355 1.3821 4.8933 1.3821 1.4443 0 2.5857-.3112 3.424-.9338.8385-.6226 1.2576-1.4983 1.2576-2.6272zm25.5498-3.8599l-3.5859 3.9346V241h-8.7407v-36.2578h8.7407v15.9873l3.038-4.607 7.8194-11.3803h10.8076l-12.252 16.0371L144.9566 241h-10.3593zm38.9971 3.8599c0-1.2783-.4524-2.2744-1.3572-2.9883-.9048-.7139-2.4943-1.4526-4.7688-2.2163-2.2744-.7637-4.1337-1.5024-5.578-2.2163-4.6984-2.3076-7.0475-5.4785-7.0475-9.5127 0-2.0088.5852-3.781 1.7557-5.3167s2.8264-2.7309 4.968-3.5859 4.5488-1.2825 7.2217-1.2825c2.6064 0 4.943.4649 7.01 1.3946s3.673 2.2536 4.8186 3.9719c1.1455 1.7183 1.7182 3.6814 1.7182 5.8894h-8.7158c0-1.4775-.4524-2.623-1.3572-3.4365-.9048-.8135-2.1291-1.2202-3.673-1.2202-1.5606 0-2.7933.3444-3.698 1.0334-.9048.689-1.3572 1.5647-1.3572 2.6272 0 .9297.498 1.7722 1.4941 2.5276.9961.7554 2.7476 1.5356 5.2544 2.3408 2.5068.8052 4.5654 1.6726 6.1758 2.6023 3.918 2.2578 5.877 5.3706 5.877 9.3384 0 3.1709-1.1954 5.6611-3.586 7.4707-2.3906 1.8096-5.6694 2.7143-9.8364 2.7143-2.9385 0-5.5989-.527-7.9812-1.5813-2.3824-1.0542-4.1753-2.4985-5.379-4.333-1.2036-1.8344-1.8054-3.947-1.8054-6.3376h8.7657c0 1.9424.5022 3.3743 1.5066 4.2956 1.0044.9214 2.6354 1.3821 4.8933 1.3821 1.4443 0 2.5857-.3112 3.424-.9338.8384-.6226 1.2576-1.4983 1.2576-2.6272z" fill="#fff" fill-rule="nonzero"/></g></svg>