<svg width="160" height="32" xmlns="http://www.w3.org/2000/svg">
  <g>
    <rect fill="none" id="canvas_background" height="34" width="162" y="-1" x="-1"></rect>
  </g>
  <g>
    <g fill-rule="evenodd" fill="none" id="Artboard">
      <g stroke="null" fill-rule="nonzero" id="header-brand-logo-173a0bb618c5e8263d0a0da1a4db8c6b">
        <g stroke="null" fill="#4A4A4A" id="XMLID_252_">
          <path stroke="null" id="XMLID_271_" d="m43.865751,8.017085c1.772235,0 3.564723,0.440116 4.845796,1.189749l0,3.083423c-1.259552,-0.924635 -2.945707,-1.386953 -4.611608,-1.366057c-1.621595,0.022202 -2.433025,0.484519 -2.433025,1.431356c0,2.665509 8.176331,1.674269 8.176331,7.158087c0,3.45824 -2.689999,4.536981 -5.82812,4.536981c-2.070983,0 -3.992591,-0.506721 -5.529372,-1.386953l0,-3.150028c1.707675,1.167548 3.586243,1.629865 5.293918,1.629865c1.729195,0 2.796333,-0.374817 2.796333,-1.47576c0,-2.884914 -8.176331,-1.806173 -8.176331,-7.267789c0,-2.972415 2.519105,-4.382875 5.466078,-4.382875z"></path>
          <polygon stroke="null" points="67.7326889038086,8.325296919089737 67.7326889038086,23.74371744134703 64.53001403808594,23.74371744134703 64.53001403808594,14.250535205045594 60.58045196533203,20.439584898775934 58.72340393066406,20.439584898775934 54.77385330200195,14.228334914373477 54.77385330200195,23.74371744134703 51.57117462158203,23.74371744134703 51.57117462158203,8.325296919089737 54.53840637207031,8.325296919089737 59.66269302368164,16.342720143803376 64.76419067382812,8.325296919089737 67.7326889038086,8.325296919089737 " id="XMLID_269_"></polygon>
          <path stroke="null" id="XMLID_266_" d="m69.112499,23.743718l6.105348,-15.417116l3.458389,0l6.083828,15.417116l-3.309015,0l-1.088658,-2.884914l-6.831964,0l-1.110178,2.884914l-3.307749,0zm5.421772,-5.617028l4.824276,0l-2.092503,-5.528221c-0.106334,-0.308212 -0.213934,-0.616423 -0.320268,-1.211951c-0.106334,0.594222 -0.212668,0.902433 -0.341788,1.211951l-2.069717,5.528221z"></path>
          <path stroke="null" id="XMLID_263_" d="m86.139876,23.743718l0,-15.418422l6.148388,0c2.902667,0 5.934454,1.123144 5.934454,5.0215c0,2.643307 -1.451967,3.985857 -3.265975,4.581384l4.462234,5.814231l-3.692577,0l-4.034366,-5.396317l-2.350743,0l0,5.396317l-3.201415,0l0,0.001306zm3.201415,-8.149327l3.095081,0c1.344367,0 2.519105,-0.616423 2.519105,-2.18099c0,-1.585462 -1.174738,-2.179684 -2.519105,-2.179684l-3.095081,0l0,4.360673z"></path>
          <polygon stroke="null" points="111.83854675292969,8.325296919089737 111.83854675292969,11.299018156336274 107.24845886230469,11.299018156336274 107.24845886230469,23.74371744134703 104.06729888916016,23.74371744134703 104.06729888916016,11.299018156336274 99.47720336914062,11.299018156336274 99.47720336914062,8.325296919089737 " id="XMLID_261_"></polygon>
          <polygon stroke="null" points="116.5096435546875,8.325296919089737 116.5096435546875,20.76869334269111 123.68086242675781,20.76869334269111 123.68086242675781,23.74241360547137 113.30696105957031,23.74241360547137 113.30696105957031,8.325296919089737 " id="XMLID_259_"></polygon>
          <polygon stroke="null" points="128.99884033203125,8.325296919089737 128.99884033203125,23.74371744134703 125.79615783691406,23.74371744134703 125.79615783691406,8.325296919089737 " id="XMLID_257_"></polygon>
          <path stroke="null" id="XMLID_255_" d="m131.611618,23.743718l0,-15.418422l3.010267,0l6.959819,10.065202c-0.04304,-0.638625 -0.06456,-1.409154 -0.06456,-2.114385l0,-7.950818l3.202681,0l0,15.418422l-3.010267,0l-6.959819,-10.065202c0.04304,0.638625 0.06456,1.409154 0.06456,2.114385l0,7.950818l-3.202681,0z"></path>
          <path stroke="null" id="XMLID_253_" d="m154.716494,8.017085c1.601341,0 3.202681,0.352615 4.590088,0.99124l0,3.150028c-1.131698,-0.770529 -2.646959,-1.189749 -4.163485,-1.189749c-2.668479,0 -5.293918,1.453558 -5.293918,5.065904c0,4.096865 2.925453,5.131203 5.12429,5.131203c0.640536,0 1.194992,-0.109702 1.643115,-0.28601l0,-5.50602l3.053307,0l0,7.642606c-1.495006,0.660827 -3.202681,1.035644 -4.867316,1.035644c-4.185005,0 -8.219371,-2.355991 -8.219371,-8.017423c0,-5.59352 4.034366,-8.017423 8.133291,-8.017423z"></path>
        </g>
        <g stroke="null" fill="#F26C5D" id="XMLID_27_">
          <circle stroke="null" r="11.909885" cy="284.294641" cx="197.753024" transform="matrix(0.08951136536632585,-0.0923468631325896,0.08951136536632584,0.09234686313258961,-30.29501001463001,10.886738784155463) " id="XMLID_251_"></circle>
          <path stroke="null" id="XMLID_249_" d="m28.023239,27.525842c-0.144311,0 -0.289887,-0.033956 -0.427868,-0.104479c-0.474706,-0.244219 -0.668386,-0.83844 -0.431666,-1.32949c3.044446,-6.310504 1.840592,-13.900871 -2.993811,-18.888416c-4.852125,-5.005828 -12.229685,-6.237369 -18.357819,-3.062527c-0.474706,0.245525 -1.051948,0.048321 -1.289934,-0.441422c-0.237986,-0.489743 -0.046838,-1.085271 0.427868,-1.330796c6.868675,-3.557495 15.138681,-2.178378 20.578176,3.433426c5.41924,5.590908 6.767404,14.100686 3.354587,21.173884c-0.167096,0.348697 -0.506353,0.549818 -0.859534,0.549818z"></path>
          <path stroke="null" id="XMLID_245_" d="m12.856708,24.532531c-3.033053,0 -5.501523,-2.546665 -5.501523,-5.675797c0,-3.129133 2.46847,-5.675797 5.501523,-5.675797c3.033053,0 5.501523,2.546665 5.501523,5.675797c0,3.129133 -2.46847,5.675797 -5.501523,5.675797zm0,-9.367808c-1.97351,0 -3.579914,1.655985 -3.579914,3.693317c0,2.037332 1.605138,3.693317 3.579914,3.693317c1.974776,0 3.579914,-1.655985 3.579914,-3.693317c0,-2.037332 -1.606404,-3.693317 -3.579914,-3.693317z"></path>
          <path stroke="null" id="XMLID_243_" d="m12.856708,28.795256c-0.981058,0 -1.948192,-0.151494 -2.874818,-0.450564c-0.511416,-0.164554 -0.79624,-0.726126 -0.636739,-1.253743c0.159501,-0.527617 0.70383,-0.822769 1.215247,-0.656909c0.739275,0.238995 1.512729,0.359145 2.29631,0.359145c4.240704,0 7.691498,-3.560107 7.691498,-7.935146c0,-4.375039 -3.450794,-7.935146 -7.691498,-7.935146c-4.240704,0 -7.691498,3.560107 -7.691498,7.935146c0,0.809709 0.117727,1.60897 0.349383,2.372969c0.159501,0.527617 -0.125322,1.089189 -0.636739,1.255049c-0.511416,0.164554 -1.055745,-0.129292 -1.216512,-0.656909c-0.291153,-0.958591 -0.437995,-1.957667 -0.437995,-2.971109c0,-5.4799 4.321721,-9.938522 9.633361,-9.938522c5.31164,0 9.632095,4.458622 9.632095,9.938522c0,5.4799 -4.321721,9.937216 -9.632095,9.937216z"></path>
          <path stroke="null" id="XMLID_241_" d="m18.719007,31.656663c-0.351915,0 -0.692437,-0.198509 -0.864597,-0.544594c-0.244315,-0.492355 -0.056965,-1.095719 0.420273,-1.347773c3.98373,-2.111773 6.458529,-6.290915 6.458529,-10.907561c0,-6.75715 -5.328097,-12.254028 -11.87777,-12.254028c-4.488817,0 -8.544703,2.564948 -10.58657,6.693157c-0.244315,0.492355 -0.827887,0.688252 -1.305124,0.436198c-0.477237,-0.250749 -0.66712,-0.854112 -0.422805,-1.346467c2.374794,-4.802095 7.094002,-7.784958 12.315765,-7.784958c7.619343,0 13.818366,6.395393 13.818366,14.256098c0,5.370197 -2.878615,10.232368 -7.513009,12.68892c-0.141779,0.075747 -0.293685,0.111008 -0.443059,0.111008z"></path>
        </g>
      </g>
    </g>
  </g>
</svg>
