<?xml version="1.0" encoding="UTF-8"?>
<svg xmlns="http://www.w3.org/2000/svg" xmlns:xlink="http://www.w3.org/1999/xlink" width="31pt" height="31pt" viewBox="0 0 31 31" version="1.1">
<g id="surface1">
<path style=" stroke:none;fill-rule:nonzero;fill:#D18600;fill-opacity:1;" d="M 15.5 2.582031 C 13.101562 2.582031 10.800781 3.535156 9.105469 5.230469 C 7.410156 6.925781 6.457031 9.226562 6.457031 11.625 C 6.457031 18.40625 15.5 28.417969 15.5 28.417969 C 15.5 28.417969 24.542969 18.40625 24.542969 11.625 C 24.542969 9.226562 23.589844 6.925781 21.894531 5.230469 C 20.199219 3.535156 17.898438 2.582031 15.5 2.582031 Z M 15.5 2.582031 "/>
<path style=" stroke:none;fill-rule:nonzero;fill:rgb(100%,100%,100%);fill-opacity:1;" d="M 23.25 11.625 C 23.25 15.835938 19.835938 19.25 15.625 19.25 C 11.414062 19.25 8 15.835938 8 11.625 C 8 7.414062 11.414062 4 15.625 4 C 19.835938 4 23.25 7.414062 23.25 11.625 Z M 23.25 11.625 "/>
<path style=" stroke:none;fill-rule:nonzero;fill:#D18600;fill-opacity:1;" d="M 14.375 13.648438 C 14.007812 13.648438 13.652344 13.503906 13.390625 13.238281 C 13.128906 12.976562 12.980469 12.621094 12.980469 12.25 C 12.980469 11.878906 13.128906 11.523438 13.390625 11.261719 C 13.652344 10.996094 14.007812 10.851562 14.375 10.851562 C 14.746094 10.851562 15.101562 10.996094 15.363281 11.261719 C 15.625 11.523438 15.769531 11.878906 15.769531 12.25 C 15.769531 12.621094 15.625 12.976562 15.363281 13.238281 C 15.101562 13.503906 14.746094 13.648438 14.375 13.648438 Z M 17.335938 12.636719 C 17.351562 12.511719 17.363281 12.382812 17.363281 12.25 C 17.363281 12.117188 17.351562 11.984375 17.335938 11.851562 L 18.175781 11.199219 C 18.253906 11.136719 18.273438 11.03125 18.222656 10.941406 L 17.425781 9.558594 C 17.378906 9.46875 17.273438 9.433594 17.183594 9.46875 L 16.191406 9.871094 C 15.984375 9.714844 15.769531 9.578125 15.519531 9.476562 L 15.371094 8.417969 C 15.355469 8.320312 15.273438 8.25 15.171875 8.25 L 13.578125 8.25 C 13.480469 8.25 13.394531 8.320312 13.378906 8.417969 L 13.234375 9.476562 C 12.980469 9.578125 12.765625 9.714844 12.558594 9.871094 L 11.566406 9.46875 C 11.480469 9.433594 11.371094 9.46875 11.324219 9.558594 L 10.527344 10.941406 C 10.476562 11.03125 10.5 11.136719 10.574219 11.199219 L 11.414062 11.851562 C 11.398438 11.984375 11.386719 12.117188 11.386719 12.25 C 11.386719 12.382812 11.398438 12.511719 11.414062 12.636719 L 10.574219 13.300781 C 10.5 13.363281 10.476562 13.46875 10.527344 13.558594 L 11.324219 14.941406 C 11.371094 15.03125 11.480469 15.0625 11.566406 15.03125 L 12.558594 14.625 C 12.765625 14.785156 12.980469 14.921875 13.234375 15.023438 L 13.378906 16.082031 C 13.394531 16.179688 13.480469 16.25 13.578125 16.25 L 15.171875 16.25 C 15.273438 16.25 15.355469 16.179688 15.371094 16.082031 L 15.519531 15.023438 C 15.769531 14.917969 15.984375 14.785156 16.191406 14.625 L 17.183594 15.03125 C 17.273438 15.0625 17.378906 15.03125 17.425781 14.941406 L 18.222656 13.558594 C 18.273438 13.46875 18.253906 13.363281 18.175781 13.300781 Z M 17.335938 12.636719 "/>
<path style=" stroke:none;fill-rule:nonzero;fill:#D18600;fill-opacity:1;" d="M 18.183594 8.25 C 18.449219 8.25 18.703125 8.355469 18.890625 8.542969 C 19.078125 8.730469 19.183594 8.984375 19.183594 9.25 C 19.183594 9.515625 19.078125 9.769531 18.890625 9.957031 C 18.703125 10.144531 18.449219 10.25 18.183594 10.25 C 17.917969 10.25 17.664062 10.144531 17.476562 9.957031 C 17.289062 9.769531 17.183594 9.515625 17.183594 9.25 C 17.183594 8.984375 17.289062 8.730469 17.476562 8.542969 C 17.664062 8.355469 17.917969 8.25 18.183594 8.25 Z M 18.183594 8.75 C 18.050781 8.75 17.921875 8.800781 17.828125 8.894531 C 17.734375 8.988281 17.683594 9.117188 17.683594 9.25 C 17.683594 9.382812 17.734375 9.511719 17.828125 9.605469 C 17.921875 9.699219 18.050781 9.75 18.183594 9.75 C 18.316406 9.75 18.441406 9.699219 18.535156 9.605469 C 18.628906 9.511719 18.683594 9.382812 18.683594 9.25 C 18.683594 9.117188 18.628906 8.988281 18.535156 8.894531 C 18.441406 8.800781 18.316406 8.75 18.183594 8.75 Z M 17.683594 11.75 C 17.621094 11.75 17.566406 11.703125 17.558594 11.644531 L 17.464844 10.984375 C 17.308594 10.921875 17.171875 10.835938 17.042969 10.734375 L 16.417969 10.988281 C 16.363281 11.007812 16.296875 10.988281 16.265625 10.933594 L 15.765625 10.066406 C 15.734375 10.011719 15.75 9.945312 15.796875 9.90625 L 16.324219 9.492188 L 16.308594 9.25 L 16.324219 9 L 15.796875 8.59375 C 15.75 8.554688 15.734375 8.488281 15.765625 8.433594 L 16.265625 7.566406 C 16.296875 7.511719 16.363281 7.488281 16.417969 7.511719 L 17.042969 7.761719 C 17.171875 7.664062 17.308594 7.578125 17.464844 7.515625 L 17.558594 6.855469 C 17.566406 6.796875 17.621094 6.75 17.683594 6.75 L 18.683594 6.75 C 18.746094 6.75 18.796875 6.796875 18.808594 6.855469 L 18.898438 7.515625 C 19.058594 7.578125 19.191406 7.664062 19.324219 7.761719 L 19.945312 7.511719 C 20 7.488281 20.066406 7.511719 20.097656 7.566406 L 20.597656 8.433594 C 20.628906 8.488281 20.613281 8.554688 20.566406 8.59375 L 20.039062 9 L 20.058594 9.25 L 20.039062 9.5 L 20.566406 9.90625 C 20.613281 9.945312 20.628906 10.011719 20.597656 10.066406 L 20.097656 10.933594 C 20.066406 10.988281 20 11.011719 19.945312 10.988281 L 19.324219 10.738281 C 19.191406 10.835938 19.058594 10.921875 18.898438 10.984375 L 18.808594 11.644531 C 18.796875 11.703125 18.746094 11.75 18.683594 11.75 Z M 17.996094 7.25 L 17.902344 7.902344 C 17.601562 7.964844 17.335938 8.125 17.144531 8.347656 L 16.542969 8.085938 L 16.355469 8.414062 L 16.882812 8.800781 C 16.78125 9.09375 16.78125 9.410156 16.882812 9.699219 L 16.351562 10.089844 L 16.539062 10.414062 L 17.148438 10.15625 C 17.339844 10.375 17.601562 10.535156 17.898438 10.59375 L 17.992188 11.25 L 18.371094 11.25 L 18.464844 10.597656 C 18.761719 10.535156 19.023438 10.375 19.21875 10.15625 L 19.824219 10.414062 L 20.011719 10.089844 L 19.480469 9.703125 C 19.582031 9.410156 19.582031 9.09375 19.480469 8.800781 L 20.011719 8.414062 L 19.824219 8.085938 L 19.21875 8.347656 C 19.027344 8.125 18.761719 7.964844 18.460938 7.90625 L 18.371094 7.25 Z M 17.996094 7.25 "/>
</g>
</svg>
