<?xml version="1.0" encoding="UTF-8"?>
<svg xmlns="http://www.w3.org/2000/svg" xmlns:xlink="http://www.w3.org/1999/xlink" width="31pt" height="31pt" viewBox="0 0 31 31" version="1.1">
<g id="surface1">
<path style=" stroke:none;fill-rule:nonzero;fill:rgb(96.862745%,33.333333%,29.803922%);fill-opacity:1;" d="M 15.5 2.582031 C 13.101562 2.582031 10.800781 3.535156 9.105469 5.230469 C 7.410156 6.925781 6.457031 9.226562 6.457031 11.625 C 6.457031 18.40625 15.5 28.417969 15.5 28.417969 C 15.5 28.417969 24.542969 18.40625 24.542969 11.625 C 24.542969 9.226562 23.589844 6.925781 21.894531 5.230469 C 20.199219 3.535156 17.898438 2.582031 15.5 2.582031 Z M 15.5 2.582031 "/>
<path style=" stroke:none;fill-rule:nonzero;fill:rgb(100%,100%,100%);fill-opacity:1;" d="M 23.25 11.625 C 23.25 15.835938 19.835938 19.25 15.625 19.25 C 11.414062 19.25 8 15.835938 8 11.625 C 8 7.414062 11.414062 4 15.625 4 C 19.835938 4 23.25 7.414062 23.25 11.625 Z M 23.25 11.625 "/>
</g>
</svg>
