<?xml version="1.0" encoding="utf-8"?>
<!-- Generator: Adobe Illustrator 22.1.0, SVG Export Plug-In . SVG Version: 6.00 Build 0)  -->
<svg version="1.2" baseProfile="tiny" id="Layer_1" xmlns="http://www.w3.org/2000/svg" xmlns:xlink="http://www.w3.org/1999/xlink"
	 x="0px" y="0px" viewBox="0 0 128.3 40.1" xml:space="preserve">
<g>
	<path fill="#004C05" d="M69.9,25.3c0-8.8,7.4-15.2,16.1-14c2.6,0.3,4.9,1.1,7,2.7c1.6,1.3,2,3.3,0.8,4.9c-1.1,1.5-3.3,1.9-5,0.7
		c-0.9-0.7-1.9-1.3-3-1.6c-4.1-1-7.8,1.7-8.3,5.9c-0.3,2.4,0.1,4.6,1.7,6.4c2.2,2.6,5.9,3,9,1.2c0.4-0.3,0.8-0.6,1.2-0.8
		c1.5-1,3.4-0.8,4.5,0.5c1.1,1.4,1,3.3-0.4,4.6c-2.1,1.9-4.5,3-7.3,3.3C80.3,39.8,75.4,38,72,32.9C70.5,30.6,69.8,28,69.9,25.3z"/>
	<path fill="#004C05" d="M65.3,0.6c-1.3,0.8-1.5,1.9-1.5,3c0,2.4,0,4.9,0,7.3c0,0.6,0.3,0.7,0.8,0.7c1,0,2,0,2.9,0.1
		c1.8,0.2,2.9,1.7,2.8,3.5s-1.4,3-3.3,3c-0.9,0-1.8,0-2.6,0c-0.5,0-0.7,0.1-0.7,0.7c0,3.7,0,7.5,0,11.2c0,1.7,0.9,2.3,2.9,2.2
		c1.7-0.1,3,0.8,3.4,2.3c0.5,1.5-0.2,3.1-1.6,3.7c-2.9,1.2-6,1.3-8.9,0.1c-2.7-1.2-3.5-3.7-3.6-6.3c-0.1-4.3-0.1-8.5,0-12.8
		c0-0.7-0.1-1-0.9-1.1c-1.5-0.1-2.6-1.6-2.6-3.2s1.1-3,2.6-3.2c0.8-0.1,1-0.4,1-1.2c0-1.3-0.1-2.7,0.1-4c0.5-3.1,2.8-4.7,5.6-5.6
		C62.8,0.7,63.8,0.4,65.3,0.6z"/>
	<path fill="#004C05" d="M28.2,13.5C27.3,7.9,23,4,17.1,3.5C13,3.2,8.9,3.4,4.8,3.4c-2.9,0-4.5,1.5-4.5,4.5c0,4.5,0,8.9,0,13.4
		s0,9,0,13.5c0,1,0.2,1.9,0.8,2.8c1,1.3,2.8,1.9,4.4,1.4s2.6-1.9,2.7-3.8c0-2,0.1-4,0-6c0-0.8,0.2-1,1-1c2.9,0,5.9,0.2,8.8-0.4
		C25.2,26.4,29.4,20.7,28.2,13.5z M15.3,21.1c-2.2,0.1-4.4,0-6.5,0.1c-0.5,0-0.6-0.3-0.5-0.7c0-1.6,0-3.1,0-4.7c0-1.5,0-3.1,0-4.6
		c0-0.5,0.1-0.8,0.7-0.8c2.1,0,4.3-0.1,6.4,0.1c3.3,0.2,5.1,2.2,5.1,5.3C20.4,18.8,18.4,20.9,15.3,21.1z"/>
	<path fill="#004C05" d="M52.3,30.8c0-3.4,0.2-6.8-0.2-10.2c-0.4-4.8-3.4-8-8-8.9c-4.1-0.8-8.2-0.5-12.2,0.9
		c-1.9,0.7-2.8,2.4-2.2,4.1c0.6,1.7,2.3,2.5,4.2,1.9c2-0.6,4.1-0.8,6.2-0.7c3.2,0.2,5.1,2.3,4.7,5.2c-0.3-0.1-0.6-0.2-0.9-0.3
		c-3.7-1-7.5-1.2-11.1,0.1c-3.3,1.2-5.2,3.8-5.3,7.3c-0.1,3.7,1.4,6.6,4.6,7.9c4.3,1.7,8.4,1.4,12.1-1.7c0.2-0.1,0.3-0.4,0.7-0.4
		c0,0.8,0,1.6,0,2.4c0,0.5,0.1,0.7,0.7,0.7c2,0,4-0.1,6.1,0c0.7,0,0.8-0.3,0.8-0.9C52.3,35.9,52.3,33.4,52.3,30.8z M44.8,30.4
		c-0.7,2.3-2.5,3.1-4.7,3.4c-0.4,0.1-0.7,0-0.9,0c-0.7,0-1.3,0-1.8-0.2c-1.6-0.5-2.4-1.4-2.5-2.8c-0.1-1.6,0.6-2.8,2.2-3.5
		c1.8-0.7,3.7-0.7,5.6-0.3c0.1,0,0.3,0.1,0.4,0.1C45,27.7,45.4,28.3,44.8,30.4z"/>
</g>
<path fill="#06C22A" d="M127.8,32c-1.1,0.7-1.7,1.7-2.5,2.7c0.5-1.8,1.5-3.4,3-5c-2.9,1.6-4.4,4.1-5.5,8.9c-0.3-3.7,1.7-6.5,3.9-9.2
	c-3,1.8-4.6,4.6-5.6,7.8c0.1-3,1.3-5.5,3.6-7.5c-3.9,1.7-5.2,5.1-5.8,9c0-3.9,1.6-7,4.7-9.6c-1.1,0.2-1.7,1-2.5,1.5l0,0
	c-1.6,2-3,4.2-3.8,6.9c-0.6-1.4-1-2.7-1.7-3.8c-0.4-0.5-0.7-1.1-1.1-1.6c-0.1-0.1-0.2-0.2-0.3-0.3l0,0l-0.9-1.2l0,0
	c-0.8-0.5-1.1-1.3-2-1.4c1.1,1.4,2.1,2.8,3,4.2c0.9,1.5,1.4,3.1,1.6,4.9c0,0.2,0.2,0.5-0.2,0.5c-0.3,0-0.3-0.2-0.3-0.4
	c-0.1-0.3-0.1-0.6-0.2-0.9c-0.6-2.5-1.5-4.8-3.4-6.7c-0.4-0.4-0.9-0.9-1.6-1c1.8,2.3,3.1,4.9,3.4,7.8c-1-1.6-2-3.2-3.7-4.2
	c1.3,1.3,2.1,2.9,2.6,4.6c0.2,0.8,0.1,1-0.7,0.9c-0.3,0-1.1-0.2-0.7,0.6c5.3,0,10.7,0,16,0c0.1-0.6-0.1-0.9-0.7-0.9
	c-1.1,0-1.2-0.1-0.9-1.2C125.7,35.5,126.5,33.6,127.8,32z"/>
<path fill="#004C05" d="M120.9,20.8c0-2.6-0.6-5-2.4-6.9c-3.4-3.6-9.5-3.6-13.2-0.1c-0.4,0.4-0.9,0.9-1.4,1.5c0-3.3,0-6.4,0-9.6
	c0-1.8-0.5-3.7,1.2-5.1c-2.6,0-4.8,0.6-6.7,2.3c-1.5,1.3-2.2,2.9-2.2,4.9c0,10.5,0,21,0,31.5c2.6,0,5.2,0,7.8,0c0-2.2,0-4.4,0-6.6
	c0-3.2,0-6.3,0-9.5c0-2.5,1.3-4.3,3.3-4.8c3.1-0.7,5.3,0.7,5.9,4v8.2l0.9,1.2l0,0c0.1,0.1,0.2,0.2,0.3,0.3c0.5,0.5,0.8,1,1.1,1.6
	c0.7,1.1,1.1,2.4,1.7,3.8c0.7-2.7,2.1-4.9,3.8-6.9C120.9,27.3,121,24.1,120.9,20.8z"/>
</svg>
