<?xml version="1.0" encoding="utf-8"?>
<!-- Generator: Adobe Illustrator 24.0.1, SVG Export Plug-In . SVG Version: 6.00 Build 0)  -->
<svg version="1.1" baseProfile="tiny" id="Layer_1" xmlns="http://www.w3.org/2000/svg" xmlns:xlink="http://www.w3.org/1999/xlink"
	 x="0px" y="0px" viewBox="0 0 291 172" xml:space="preserve">
<g>
	<g>
		<path d="M59.93,20.22c-1.92,0-3.42,0.52-4.5,1.56c-1.08,1.04-1.62,2.52-1.62,4.44v17.39c0,4,2.06,6,6.18,6
			c0.94,0,1.75-0.09,2.45-0.28c0.69-0.18,1.32-0.44,1.87-0.77c0.55-0.33,1.07-0.72,1.56-1.19c0.49-0.47,1.04-0.99,1.65-1.56
			l4.47,5.33c-1.71,1.8-3.53,3.11-5.45,3.95c-1.92,0.84-4.1,1.25-6.55,1.25c-4.16,0-7.5-1.07-10.01-3.21s-3.77-5.32-3.77-9.52V26.23
			c0-1.96,0.34-3.72,1.01-5.3c0.67-1.57,1.62-2.91,2.85-4.01c1.22-1.1,2.67-1.95,4.35-2.54c1.67-0.59,3.51-0.89,5.51-0.89
			c1.47,0,2.79,0.1,3.95,0.31c1.16,0.2,2.24,0.55,3.22,1.04c0.98,0.49,1.89,1.12,2.72,1.9c0.84,0.78,1.62,1.71,2.36,2.82l-4.84,4.72
			c-0.57-0.94-1.48-1.84-2.72-2.69C63.36,20.71,61.8,20.27,59.93,20.22z"/>
		<path d="M97.44,14.35c1.73,0.57,3.25,1.4,4.53,2.48c1.29,1.08,2.31,2.41,3.06,3.98c0.75,1.57,1.13,3.36,1.13,5.36v17.45
			c0,2.08-0.37,3.91-1.1,5.48c-0.74,1.57-1.75,2.9-3.03,3.98c-1.29,1.08-2.8,1.9-4.53,2.45c-1.74,0.55-3.62,0.83-5.66,0.83h-0.8
			c-2.08,0-4-0.27-5.76-0.8c-1.76-0.53-3.28-1.34-4.56-2.42c-1.29-1.08-2.29-2.42-3-4.01c-0.71-1.59-1.07-3.43-1.07-5.51V26.16
			c0-1.96,0.38-3.73,1.13-5.3c0.75-1.57,1.78-2.9,3.06-3.98c1.29-1.08,2.8-1.92,4.53-2.51c1.73-0.59,3.6-0.89,5.6-0.89h0.86
			C93.83,13.49,95.7,13.77,97.44,14.35z M98.57,26.23c0-1.92-0.64-3.4-1.93-4.44s-2.89-1.56-4.81-1.56h-0.86
			c-1.92,0-3.52,0.51-4.81,1.53c-1.29,1.02-1.93,2.49-1.93,4.41v17.45c0,2.08,0.62,3.6,1.87,4.56c1.24,0.96,2.89,1.44,4.93,1.44h0.8
			c2.08,0,3.72-0.48,4.93-1.44c1.2-0.96,1.81-2.48,1.81-4.56V26.23z"/>
		<path d="M117.49,14.1l8.14,30.8l8.33-30.8h7.72l-11.64,41.64h-8.82L109.9,14.1H117.49z"/>
		<path d="M148.78,14.1h7.59v41.64h-7.59V14.1z"/>
		<path d="M178.54,14.1c4.29,0,7.65,1.04,10.1,3.12c2.45,2.08,3.67,5.27,3.67,9.55v16.29c0,4.49-1.25,7.74-3.77,9.74
			c-2.51,2-6.01,3-10.5,3h-11.51V14.1H178.54z M184.97,26.78c0-2.08-0.55-3.59-1.64-4.53c-1.09-0.94-2.69-1.41-4.8-1.41h-4.64v28.23
			h4.15c2.06,0,3.74-0.48,5.02-1.44c1.28-0.96,1.92-2.48,1.92-4.56V26.78z"/>
		<path d="M197.28,34.19h14.51v6.74h-14.51V34.19z"/>
		<path d="M225.21,20.84h-7.47V14.1h15.07v41.64h-7.59V20.84z"/>
		<path d="M254.05,13.67c1.75,0,3.38,0.21,4.87,0.64s2.78,1.07,3.86,1.93c1.08,0.86,1.93,1.94,2.54,3.25
			c0.61,1.31,0.92,2.84,0.92,4.59v21.56c0,1.76-0.31,3.29-0.92,4.59c-0.61,1.31-1.46,2.4-2.54,3.28c-1.08,0.88-2.37,1.53-3.86,1.96
			s-3.11,0.64-4.87,0.64c-2.12,0-4.16-0.39-6.12-1.16s-3.65-1.94-5.08-3.49l4.16-5.63c0.94,0.9,2.02,1.76,3.25,2.57
			c1.22,0.82,2.47,1.22,3.74,1.22c1.43,0,2.57-0.31,3.43-0.92c0.86-0.61,1.29-1.63,1.29-3.06v-6.12c-0.78,0.69-1.78,1.21-3,1.56
			c-1.22,0.35-2.35,0.52-3.37,0.52c-3.59,0-6.21-0.86-7.84-2.57c-1.63-1.71-2.45-4.37-2.45-7.96v-6.98c0-1.71,0.3-3.22,0.89-4.53
			c0.59-1.31,1.42-2.4,2.48-3.28c1.06-0.88,2.33-1.53,3.8-1.96S252.29,13.67,254.05,13.67z M258.7,24.08c0-1.43-0.42-2.43-1.26-3
			c-0.84-0.57-1.98-0.86-3.42-0.86c-1.44,0-2.57,0.29-3.39,0.86c-0.82,0.57-1.23,1.57-1.23,3v6.98c0,1.43,0.41,2.42,1.23,2.97
			s1.95,0.83,3.39,0.83c1.44,0,2.58-0.4,3.42-1.19c0.84-0.8,1.26-1.93,1.26-3.4V24.08z"/>
		<path d="M70.86,85.73c-1.16,1.47-2.83,2.63-4.99,3.49l8.15,17.7h-7.72l-7.78-16.9h-3.49v16.9h-7.59V65.27H61.4
			c3.67,0,6.46,0.86,8.36,2.57s2.85,4.41,2.85,8.08v3.98C72.6,82.32,72.02,84.26,70.86,85.73z M55.03,83.28h6.37
			c1.1,0,1.98-0.28,2.63-0.83c0.65-0.55,0.98-1.42,0.98-2.6v-3.98c0-1.31-0.29-2.28-0.86-2.91c-0.57-0.63-1.51-0.95-2.82-0.95h-6.31
			V83.28z"/>
		<path d="M90.24,100.79c1.31,0,2.44-0.29,3.4-0.86c0.96-0.57,1.97-1.39,3.03-2.45l3.92,4.84c-1.59,1.71-3.21,3.01-4.87,3.89
			c-1.65,0.88-3.62,1.32-5.91,1.32c-3.96,0-7-0.84-9.12-2.51c-2.13-1.67-3.19-4.49-3.19-8.45v-9.86c0-3.47,1.04-6.07,3.13-7.81
			c2.08-1.73,4.9-2.6,8.45-2.6c1.59,0,3.06,0.25,4.41,0.73c1.35,0.49,2.5,1.18,3.46,2.08c0.96,0.9,1.7,2,2.24,3.31
			c0.53,1.31,0.8,2.76,0.8,4.35v5.51l-15.13,2.69v1.59c0,1.51,0.52,2.59,1.56,3.25C87.45,100.46,88.73,100.79,90.24,100.79z
			 M89.14,83.03c-1.31,0-2.35,0.3-3.12,0.89c-0.78,0.59-1.16,1.5-1.16,2.73v3.31l7.66-1.35v-1.78c0-1.18-0.27-2.11-0.8-2.79
			C91.18,83.37,90.32,83.03,89.14,83.03z"/>
		<path d="M118.16,88.85c1.27,0.53,2.37,1.07,3.31,1.62c0.94,0.55,1.71,1.16,2.33,1.84c0.61,0.67,1.07,1.44,1.38,2.3
			c0.31,0.86,0.46,1.88,0.46,3.06c0,1.59-0.27,3-0.8,4.23s-1.27,2.26-2.2,3.09c-0.94,0.84-2.06,1.48-3.37,1.93
			c-1.31,0.45-2.74,0.67-4.29,0.67c-2.16,0-4.15-0.46-5.97-1.38c-1.82-0.92-3.38-2.24-4.68-3.95l4.35-4.9
			c0.33,0.49,0.73,0.97,1.22,1.44c0.49,0.47,1.02,0.9,1.59,1.29c0.57,0.39,1.17,0.69,1.81,0.92c0.63,0.22,1.23,0.34,1.81,0.34
			c1.1,0,1.94-0.15,2.51-0.46c0.57-0.31,0.86-1.03,0.86-2.17c0-0.49-0.21-0.94-0.64-1.35s-0.96-0.79-1.59-1.13
			c-0.63-0.35-1.3-0.65-1.99-0.92c-0.69-0.27-1.31-0.5-1.84-0.7c-1.31-0.53-2.41-1.07-3.31-1.62s-1.63-1.17-2.2-1.87
			c-0.57-0.69-0.98-1.49-1.22-2.39c-0.25-0.9-0.37-1.96-0.37-3.18c0-1.47,0.26-2.78,0.8-3.92c0.53-1.14,1.25-2.11,2.17-2.91
			s2-1.4,3.25-1.81c1.25-0.41,2.6-0.61,4.07-0.61c1.8,0,3.53,0.45,5.21,1.35c1.67,0.9,3.14,2.02,4.41,3.37l-4.23,4.84
			c-0.65-0.77-1.4-1.48-2.24-2.11c-0.84-0.63-1.75-0.95-2.73-0.95c-0.94,0-1.71,0.22-2.3,0.67c-0.59,0.45-0.89,1.14-0.89,2.08
			c0,0.41,0.18,0.77,0.55,1.07c0.37,0.31,0.83,0.59,1.38,0.86c0.55,0.27,1.13,0.51,1.75,0.74S117.67,88.65,118.16,88.85z"/>
		<path d="M141.62,76.3c1.59,0,3.1,0.22,4.53,0.67c1.43,0.45,2.68,1.12,3.77,2.02c1.08,0.9,1.93,1.99,2.54,3.28s0.92,2.79,0.92,4.5
			v10.23c0,1.71-0.3,3.23-0.89,4.53s-1.41,2.4-2.45,3.28s-2.27,1.55-3.67,2.02c-1.41,0.47-2.95,0.7-4.62,0.7
			c-1.71,0-3.31-0.22-4.78-0.67c-1.47-0.45-2.75-1.12-3.83-2.02c-1.08-0.9-1.92-2-2.51-3.31s-0.89-2.82-0.89-4.53V86.77
			c0-1.71,0.31-3.21,0.92-4.5s1.45-2.38,2.51-3.28c1.06-0.9,2.32-1.57,3.77-2.02S139.94,76.3,141.62,76.3z M145.78,86.71
			c0-1.55-0.32-2.55-0.95-3c-0.63-0.45-1.71-0.67-3.21-0.67c-1.39,0-2.45,0.3-3.18,0.89c-0.74,0.59-1.1,1.54-1.1,2.85v10.17
			c0,1.63,0.32,2.68,0.95,3.15c0.63,0.47,1.79,0.7,3.46,0.7c1.31,0,2.31-0.29,3-0.86c0.69-0.57,1.04-1.55,1.04-2.94V86.71z"/>
		<path d="M173.22,76.91h7.59v20.15c0,3.47-0.96,6.08-2.88,7.84c-1.92,1.76-4.57,2.63-7.96,2.63c-3.47,0-6.15-0.88-8.05-2.63
			c-1.9-1.75-2.85-4.37-2.85-7.84V76.91h7.59v20.15c0,1.31,0.21,2.26,0.64,2.85s1.32,0.89,2.66,0.89c1.27,0,2.12-0.29,2.57-0.86
			c0.45-0.57,0.67-1.53,0.67-2.88V76.91z"/>
		<path d="M199.85,76.48c0.94,0,1.61,0.07,2.02,0.21c0.41,0.14,0.84,0.34,1.29,0.58l-1.29,6.8c-1.14-0.57-2.18-0.86-3.12-0.86
			c-1.1,0-1.99,0.39-2.66,1.16c-0.67,0.78-1.01,1.96-1.01,3.55v18.98h-7.41V76.91h5.51l0.86,3.18c0.82-1.39,1.7-2.34,2.66-2.85
			C197.66,76.73,198.71,76.48,199.85,76.48z"/>
		<path d="M216.63,83.03c-2.49,0-3.74,1.25-3.74,3.74v10.29c0,1.35,0.36,2.31,1.07,2.88c0.71,0.57,1.75,0.86,3.09,0.86
			c1.1,0,2.1-0.19,3-0.58c0.9-0.39,1.71-1.05,2.45-1.99l4.47,4.72c-1.51,1.59-3.05,2.76-4.62,3.49c-1.57,0.74-3.46,1.1-5.67,1.1
			c-3.42,0-6.13-0.89-8.14-2.66c-2-1.78-3.01-4.38-3.01-7.81V86.77c0-1.59,0.27-3.03,0.82-4.32c0.55-1.29,1.3-2.39,2.28-3.31
			c0.97-0.92,2.14-1.62,3.5-2.11c1.36-0.49,2.86-0.73,4.49-0.73c2.29,0,4.25,0.36,5.88,1.07c1.63,0.71,3.16,2.07,4.59,4.07
			l-4.78,4.72c-0.78-0.94-1.63-1.69-2.57-2.27C218.82,83.32,217.77,83.03,216.63,83.03z"/>
		<path d="M243.58,100.79c1.31,0,2.44-0.29,3.4-0.86c0.96-0.57,1.97-1.39,3.03-2.45l3.92,4.84c-1.59,1.71-3.21,3.01-4.87,3.89
			c-1.65,0.88-3.62,1.32-5.91,1.32c-3.96,0-7-0.84-9.12-2.51c-2.13-1.67-3.19-4.49-3.19-8.45v-9.86c0-3.47,1.04-6.07,3.13-7.81
			c2.08-1.73,4.9-2.6,8.45-2.6c1.59,0,3.06,0.25,4.41,0.73c1.35,0.49,2.5,1.18,3.46,2.08c0.96,0.9,1.7,2,2.24,3.31
			c0.53,1.31,0.8,2.76,0.8,4.35v5.51l-15.13,2.69v1.59c0,1.51,0.52,2.59,1.56,3.25C240.79,100.46,242.07,100.79,243.58,100.79z
			 M242.48,83.03c-1.31,0-2.35,0.3-3.12,0.89c-0.78,0.59-1.16,1.5-1.16,2.73v3.31l7.66-1.35v-1.78c0-1.18-0.27-2.11-0.8-2.79
			C244.52,83.37,243.66,83.03,242.48,83.03z"/>
		<path d="M271.5,88.85c1.27,0.53,2.37,1.07,3.31,1.62c0.94,0.55,1.71,1.16,2.33,1.84c0.61,0.67,1.07,1.44,1.38,2.3
			c0.31,0.86,0.46,1.88,0.46,3.06c0,1.59-0.27,3-0.8,4.23s-1.27,2.26-2.2,3.09c-0.94,0.84-2.06,1.48-3.37,1.93
			c-1.31,0.45-2.74,0.67-4.29,0.67c-2.16,0-4.15-0.46-5.97-1.38c-1.82-0.92-3.38-2.24-4.68-3.95l4.35-4.9
			c0.33,0.49,0.73,0.97,1.22,1.44c0.49,0.47,1.02,0.9,1.59,1.29c0.57,0.39,1.17,0.69,1.81,0.92c0.63,0.22,1.23,0.34,1.81,0.34
			c1.1,0,1.94-0.15,2.51-0.46c0.57-0.31,0.86-1.03,0.86-2.17c0-0.49-0.21-0.94-0.64-1.35s-0.96-0.79-1.59-1.13
			c-0.63-0.35-1.3-0.65-1.99-0.92c-0.69-0.27-1.31-0.5-1.84-0.7c-1.31-0.53-2.41-1.07-3.31-1.62s-1.63-1.17-2.2-1.87
			c-0.57-0.69-0.98-1.49-1.22-2.39c-0.25-0.9-0.37-1.96-0.37-3.18c0-1.47,0.26-2.78,0.8-3.92c0.53-1.14,1.25-2.11,2.17-2.91
			s2-1.4,3.25-1.81c1.25-0.41,2.6-0.61,4.07-0.61c1.8,0,3.53,0.45,5.21,1.35c1.67,0.9,3.14,2.02,4.41,3.37l-4.23,4.84
			c-0.65-0.77-1.4-1.48-2.24-2.11c-0.84-0.63-1.75-0.95-2.73-0.95c-0.94,0-1.71,0.22-2.3,0.67c-0.59,0.45-0.89,1.14-0.89,2.08
			c0,0.41,0.18,0.77,0.55,1.07c0.37,0.31,0.83,0.59,1.38,0.86c0.55,0.27,1.13,0.51,1.75,0.74S271.01,88.65,271.5,88.85z"/>
		<path d="M59.93,122.57c-1.92,0-3.42,0.52-4.5,1.56c-1.08,1.04-1.62,2.52-1.62,4.44v17.39c0,4,2.06,6,6.18,6
			c0.94,0,1.75-0.09,2.45-0.28c0.69-0.18,1.32-0.44,1.87-0.77c0.55-0.33,1.07-0.72,1.56-1.19c0.49-0.47,1.04-0.99,1.65-1.56
			l4.47,5.33c-1.71,1.8-3.53,3.11-5.45,3.95c-1.92,0.84-4.1,1.25-6.55,1.25c-4.16,0-7.5-1.07-10.01-3.21s-3.77-5.32-3.77-9.52
			v-17.39c0-1.96,0.34-3.73,1.01-5.3c0.67-1.57,1.62-2.91,2.85-4.01s2.67-1.95,4.35-2.54c1.67-0.59,3.51-0.89,5.51-0.89
			c1.47,0,2.79,0.1,3.95,0.31c1.16,0.21,2.24,0.55,3.22,1.04c0.98,0.49,1.89,1.12,2.72,1.9c0.84,0.78,1.62,1.71,2.36,2.82
			l-4.84,4.71c-0.57-0.94-1.48-1.84-2.72-2.69C63.36,123.06,61.8,122.61,59.93,122.57z"/>
		<path d="M87.85,127.47c3.55,0,6.16,0.81,7.84,2.42c1.67,1.61,2.51,4.19,2.51,7.75v20.45h-5.69l-0.67-4.16
			c-0.86,1.27-1.91,2.36-3.15,3.28c-1.25,0.92-2.58,1.38-4.01,1.38c-2.94,0-5.08-0.68-6.43-2.05c-1.35-1.37-2.02-3.52-2.02-6.46
			v-7.78l14.64-3.06v-1.59c0-1.43-0.28-2.41-0.83-2.94s-1.54-0.8-2.97-0.8c-0.53,0-1.15,0.1-1.87,0.31
			c-0.71,0.21-1.43,0.46-2.14,0.77c-0.71,0.31-1.39,0.63-2.02,0.98c-0.63,0.35-1.15,0.68-1.56,1.01l-2.63-5.27
			c0.69-0.53,1.49-1.05,2.39-1.56c0.9-0.51,1.84-0.96,2.82-1.35c0.98-0.39,1.97-0.7,2.97-0.95C86,127.59,86.95,127.47,87.85,127.47z
			 M90.67,144.31l-6.86,1.59v3.86c0,1.06,0.22,1.74,0.67,2.02c0.45,0.29,1.18,0.43,2.2,0.43c1.06,0,1.99-0.35,2.79-1.04
			c0.8-0.69,1.19-1.59,1.19-2.69V144.31z"/>
		<path d="M119.26,127.4c3.43,0,5.82,0.87,7.17,2.6c1.35,1.74,2.02,4.34,2.02,7.81v20.27h-7.59v-18.94c0-1.38-0.24-2.56-0.7-3.54
			c-0.47-0.98-1.4-1.47-2.79-1.47c-0.74,0-1.4,0.17-1.99,0.52c-0.59,0.35-1.1,0.8-1.53,1.37s-0.77,1.21-1.01,1.92
			c-0.25,0.71-0.37,1.43-0.37,2.17v17.96h-7.59v-30.01h6.8l0.61,3.16c0.86-1.32,1.83-2.29,2.91-2.9S117.63,127.4,119.26,127.4z"/>
		<path d="M145.54,127.47c3.55,0,6.16,0.81,7.84,2.42c1.67,1.61,2.51,4.19,2.51,7.75v20.45h-5.69l-0.67-4.16
			c-0.86,1.27-1.91,2.36-3.15,3.28c-1.25,0.92-2.58,1.38-4.01,1.38c-2.94,0-5.08-0.68-6.43-2.05c-1.35-1.37-2.02-3.52-2.02-6.46
			v-7.78l14.64-3.06v-1.59c0-1.43-0.28-2.41-0.83-2.94s-1.54-0.8-2.97-0.8c-0.53,0-1.15,0.1-1.87,0.31
			c-0.71,0.21-1.43,0.46-2.14,0.77c-0.71,0.31-1.39,0.63-2.02,0.98c-0.63,0.35-1.15,0.68-1.56,1.01l-2.63-5.27
			c0.69-0.53,1.49-1.05,2.39-1.56c0.9-0.51,1.84-0.96,2.82-1.35c0.98-0.39,1.97-0.7,2.97-0.95
			C143.69,127.59,144.64,127.47,145.54,127.47z M148.35,144.31l-6.86,1.59v3.86c0,1.06,0.22,1.74,0.67,2.02
			c0.45,0.29,1.18,0.43,2.2,0.43c1.06,0,1.99-0.35,2.79-1.04c0.8-0.69,1.19-1.59,1.19-2.69V144.31z"/>
		<path d="M177.2,113.99h7.72v44.09h-6.06l-1.04-2.51c-0.9,0.86-1.85,1.57-2.85,2.14s-2.07,0.86-3.21,0.86
			c-6.94,0-10.41-3.47-10.41-10.41v-10.29c0-3.47,0.85-6.08,2.54-7.84c1.69-1.75,4.32-2.63,7.87-2.63c0.65,0,1.21,0.03,1.68,0.09
			c0.47,0.06,0.91,0.18,1.32,0.37c0.41,0.18,0.8,0.44,1.16,0.76c0.37,0.33,0.8,0.74,1.29,1.23V113.99z M177.32,138.92
			c0-1.43-0.36-2.58-1.07-3.46c-0.71-0.88-1.79-1.32-3.21-1.32c-1.35,0-2.37,0.3-3.06,0.89c-0.7,0.59-1.04,1.54-1.04,2.85v10.23
			c0,1.51,0.29,2.51,0.86,3c0.57,0.49,1.61,0.74,3.12,0.74c1.35,0,2.42-0.43,3.21-1.29s1.19-1.98,1.19-3.37V138.92z"/>
		<path d="M202.06,127.47c3.55,0,6.16,0.81,7.84,2.42c1.67,1.61,2.51,4.19,2.51,7.75v20.45h-5.69l-0.67-4.16
			c-0.86,1.27-1.91,2.36-3.15,3.28c-1.25,0.92-2.58,1.38-4.01,1.38c-2.94,0-5.08-0.68-6.43-2.05c-1.35-1.37-2.02-3.52-2.02-6.46
			v-7.78l14.64-3.06v-1.59c0-1.43-0.28-2.41-0.83-2.94s-1.54-0.8-2.97-0.8c-0.53,0-1.15,0.1-1.87,0.31
			c-0.71,0.21-1.43,0.46-2.14,0.77c-0.71,0.31-1.39,0.63-2.02,0.98c-0.63,0.35-1.15,0.68-1.56,1.01l-2.63-5.27
			c0.69-0.53,1.49-1.05,2.39-1.56c0.9-0.51,1.84-0.96,2.82-1.35c0.98-0.39,1.97-0.7,2.97-0.95
			C200.21,127.59,201.16,127.47,202.06,127.47z M204.88,144.31l-6.86,1.59v3.86c0,1.06,0.22,1.74,0.67,2.02
			c0.45,0.29,1.18,0.43,2.2,0.43c1.06,0,1.99-0.35,2.79-1.04c0.8-0.69,1.19-1.59,1.19-2.69V144.31z"/>
	</g>
	<rect x="12.03" y="13.3" fill="#FF0000" width="16" height="145"/>
</g>
</svg>
