<svg width="14" height="14" viewBox="0 0 14 14" fill="none" xmlns="http://www.w3.org/2000/svg">
  <path d="M7 6.10352e-05C3.12667 6.10352e-05 0 3.12673 0 7.00006C0 10.8734 3.12667 14.0001 7 14.0001C10.8733 14.0001 14 10.8734 14 7.00006C14 3.12673 10.8733 6.10352e-05 7 6.10352e-05ZM10.9667 4.01339L6.72 10.8734C6.58 11.1067 6.3 11.2934 6.02 11.2934C5.78667 11.2934 5.55333 11.1534 5.36667 10.9667L2.75333 7.70006C2.56667 7.42006 2.56667 7.04673 2.8 6.81339C3.08 6.53339 3.5 6.53339 3.73333 6.76673L5.97333 8.77339L9.94 3.31339C10.1267 3.03339 10.5467 2.98673 10.8267 3.17339C11.1067 3.31339 11.1533 3.73339 10.9667 4.01339Z" fill="#4CA90C"/>
</svg>
