<svg width="35" height="35" viewBox="0 0 35 35" fill="none" xmlns="http://www.w3.org/2000/svg">
<path d="M33.182 9.7924C30.1877 3.66053 24.3209 0 17.5013 0C1.20878 0 -6.19515 20.4403 6.22612 30.8814C9.5203 33.6554 13.5125 35.0004 17.5013 35.0004C19.0988 35.0004 20.6675 34.7855 22.1575 34.3628C25.7607 33.3815 29.0129 31.2038 31.3195 28.2381C35.4456 22.9444 36.1548 15.8741 33.182 9.7924ZM3.41808 17.0202C2.19852 17.0964 1.83896 17.0456 1.45532 18.3885C1.16864 12.5168 3.94041 7.36821 8.33933 4.31238C8.52559 4.53444 8.75482 4.72069 9.00552 4.86397C9.3852 5.0717 9.81499 5.20063 10.1302 5.50148C10.5958 5.93131 10.7032 6.61897 10.6961 7.24935C10.6674 9.01157 9.91529 10.8096 10.4167 12.5001C10.5815 13.0517 10.8609 13.6964 10.517 14.1549C10.2806 14.4629 9.82933 14.5417 9.44248 14.4844C7.74897 14.2649 8.57544 13.7125 4.82925 15.3583C4.75764 15.3941 4.67885 15.4228 4.62153 15.4873C4.23553 15.8476 5.01691 16.8934 3.41808 17.0202ZM12.4941 25.7094C12.1869 25.9947 12.0955 26.0726 12.0571 26.6479C11.9547 29.3085 10.5219 27.34 10.1158 29.6851C9.84003 31.2024 9.04225 30.075 8.86224 31.0462C8.00287 30.5091 7.09478 29.7659 6.79205 29.4631V29.3127C6.78489 28.5891 6.49833 27.88 6.55565 27.1565C6.58429 26.698 6.73474 26.1894 6.48399 25.8097C6.23329 25.4516 5.71038 25.3584 5.47397 25.0003C5.34503 24.8212 5.30922 24.592 5.20175 24.4129C5.07999 24.2266 4.88656 24.112 4.75045 23.9472C3.85433 22.8431 5.5099 21.4348 5.83214 20.6091C5.96824 20.2438 6.01839 19.8212 6.33358 19.5776C7.17705 18.9449 8.09135 20.2142 8.34649 20.1292C8.83705 20.1292 8.71384 19.794 9.80781 21.3254C10.1255 21.7423 10.0828 21.6762 10.5313 21.8555C11.2767 22.1917 10.9476 22.8925 11.1617 23.059C12.1433 23.7047 12.4976 23.5882 12.8451 23.9472C13.5011 24.6443 12.5661 25.7814 12.4941 25.7094ZM16.4268 4.9571C16.2334 4.97139 16.0256 4.83529 15.8609 4.93559C15.3478 5.3916 15.4858 6.93872 14.2921 6.28231C14.0186 6.12836 13.9115 6.02796 13.891 5.63759C13.7836 3.94038 14.2978 4.11086 14.2062 3.77512C14.1424 3.59669 13.8034 3.76361 13.8766 3.32382C13.8981 3.12031 14.0966 2.63872 13.368 2.59314C13.1427 2.58754 12.4944 2.69995 12.3795 2.27795C14.3966 1.58462 16.5526 1.33352 18.4684 1.46136C18.0615 1.75191 18.682 2.18386 18.583 2.57168C18.5185 2.82238 18.189 2.91551 18.0529 3.14474C17.9454 3.331 17.9884 3.5674 17.9956 3.77513C17.9956 4.48676 17.5298 4.31388 17.3008 4.34819C16.9426 4.42697 16.7921 4.93559 16.4268 4.9571ZM30.2952 27.1923V27.2137C30.2593 27.2639 30.2235 27.3069 30.1877 27.357C28.0888 30.0576 25.1375 32.0419 21.871 32.9516C21.8638 32.9302 21.8638 32.9015 21.8567 32.88C21.828 32.6866 21.7564 32.486 21.7635 32.2711C21.7707 31.6837 22.1934 31.1679 22.7019 30.8743C23.1962 30.5805 23.7764 30.423 24.3137 30.2009C24.8438 29.9502 25.381 29.5992 25.6031 29.0476C25.7822 28.582 25.7822 27.9588 26.2335 27.7653C26.4627 27.6794 26.7206 27.7439 26.957 27.7152C27.5229 27.6006 27.8166 26.9559 28.2679 26.6264C28.5974 26.3828 28.9484 26.2539 29.2421 25.953C29.4929 25.7238 29.6576 25.4158 30.0444 25.473C31.0043 25.6091 30.2378 26.6694 30.2952 27.1923ZM31.1691 20.0002C30.3238 20.1865 30.0659 20.7954 29.586 20.9243C29.2994 20.9816 29.0057 20.8598 28.7192 20.8598C28.3252 20.867 27.9742 21.1177 27.1576 21.5189C26.0759 22.0275 26.606 22.1922 25.8395 23.4387C25.1303 23.8684 24.5429 24.2266 23.8266 24.6564H23.8051C22.265 24.771 22.6805 25.4086 22.1718 25.8527C21.9498 26.0246 21.6489 26.0175 21.3911 26.1034C20.5744 26.3327 20.2449 27.2137 18.5902 27.3642C18.189 27.3857 18.1604 27.3714 16.9068 26.2324C16.785 26.1321 16.7492 26.0676 16.8781 25.8957C18.0887 24.4845 17.6088 24.5704 17.6088 23.7395C17.6733 23.0877 18.4469 22.6793 18.7048 22.0919C18.9555 21.5833 18.8624 20.9529 19.156 20.473C19.3853 20.1148 19.8008 19.9071 20.1589 19.6492C22.4727 18.0088 21.0329 15.5159 22.4942 15.1005C23.3896 14.1047 22.1002 13.9328 21.9713 13.4672C21.9426 13.3812 21.957 13.2666 21.9283 13.1807C21.6919 12.536 20.295 12.3855 19.8581 11.9127C19.722 11.791 19.5501 11.7695 19.371 11.7552C19.1202 11.7408 18.8194 9.32675 19.0271 8.35254C19.2779 7.44995 19.4856 7.65767 19.9154 7.14192C20.6031 6.3468 20.03 5.25078 22.8739 4.8568C24.457 4.66337 24.1848 3.92556 24.7149 3.74648C25.0014 3.66764 25.2879 3.83244 25.7321 3.64618C26.9785 4.38399 28.1246 5.30809 29.1347 6.38977C28.5617 7.27518 29.2776 7.43833 29.4929 7.80094C29.6588 8.12354 29.5281 8.86121 30.0802 8.81096C30.3305 8.77804 30.3207 8.22069 30.8324 8.54592C31.2192 9.1405 31.5702 9.76371 31.8926 10.4227C33.0387 12.758 33.5903 15.2509 33.5688 17.7222C31.4699 17.3999 31.4843 17.3927 31.3052 17.6076C31.1977 17.7581 31.2121 17.9658 31.341 18.1234C31.7216 18.6563 32.7001 18.3694 32.8382 18.9042C32.2006 19.9859 31.7565 19.8928 31.1691 20.0002Z" fill="#3E54A1"/>
</svg>
