<svg width="35" height="35" viewBox="0 0 35 35" fill="none" xmlns="http://www.w3.org/2000/svg">
<g clip-path="url(#clip0)">
<path d="M27.5637 1.84702C26.7213 1.05893 25.6084 0.624554 24.455 0.633655C23.1437 0.636205 21.8869 1.15835 20.9598 2.08571L20.5534 2.4949L20.1442 2.08287C19.2172 1.1575 17.9617 0.636511 16.6519 0.633655C15.4984 0.624554 14.3855 1.05893 13.5432 1.84702C13.0902 2.27297 12.7273 2.78558 12.4761 3.35444C12.225 3.92329 12.0907 4.5368 12.0811 5.15857C12.0716 5.78033 12.187 6.39767 12.4206 6.97396C12.6542 7.55026 13.0012 8.07376 13.4409 8.51341L20.5449 15.6174L27.6489 8.51341C28.0898 8.07489 28.438 7.55229 28.6731 6.97662C28.9081 6.40095 29.0251 5.78393 29.0172 5.16217C29.0092 4.54042 28.8765 3.9266 28.6268 3.35712C28.3771 2.78765 28.0156 2.27412 27.5637 1.84702Z" fill="#3E54A1"/>
<path d="M34.5425 19.2462C33.4485 18.5045 32.1612 18.7148 31.0218 19.374C29.8823 20.0333 23.3324 25.6398 23.3324 25.6398H16.8848C16.7232 25.6221 16.5726 25.549 16.4587 25.433C16.3447 25.317 16.2744 25.1652 16.2596 25.0032C16.2633 24.8386 16.3303 24.6817 16.4468 24.5652C16.5632 24.4487 16.7201 24.3817 16.8848 24.3781H20.8289C22.21 24.3781 23.7558 23.4773 23.7558 21.8803C23.7558 20.1754 22.21 19.3826 20.8289 19.3826C18.4335 19.3826 17.9674 19.3826 17.9674 19.3826C17.007 19.3826 16.0352 19.3257 15.285 18.9251C14.2376 18.3929 13.0783 18.1182 11.9035 18.1237C10.9435 18.1147 9.9914 18.2973 9.10289 18.6608C8.21437 19.0244 7.40729 19.5615 6.72891 20.2407L0 26.8702L7.49614 34.3663L9.99391 31.8686H22.6476C23.9047 31.867 25.1177 31.405 26.0575 30.5699L34.6249 20.9596C34.7492 20.8511 34.8473 20.7159 34.912 20.5641C34.9766 20.4123 35.0061 20.2478 34.9981 20.083C34.9902 19.9182 34.9451 19.7573 34.8662 19.6124C34.7873 19.4674 34.6766 19.3423 34.5425 19.2462Z" fill="#3E54A1"/>
</g>
<defs>
<clipPath id="clip0">
<rect width="35" height="35" fill="white"/>
</clipPath>
</defs>
</svg>
