<svg width="35" height="32" viewBox="0 0 35 32" fill="none" xmlns="http://www.w3.org/2000/svg">
<path fill-rule="evenodd" clip-rule="evenodd" d="M2.16814 0H32.8319C33.9676 0 35 1.03245 35 2.16814V24.056C35 25.1917 33.9676 26.2242 32.8319 26.2242H19.823V28.5988H22.9204C23.6431 28.5988 24.2625 29.2183 24.2625 29.8378V31.1799H10.7375V29.8378C10.7375 29.2183 11.3569 28.5988 11.9764 28.5988H15.177V26.2242H2.16814C1.03245 26.2242 0 25.1917 0 24.056V2.16814C0 1.03245 1.03245 0 2.16814 0ZM17.4484 22.3009C17.9646 22.3009 18.3776 22.7139 18.3776 23.2301C18.3776 23.7463 17.9646 24.1593 17.4484 24.1593C16.9322 24.1593 16.5192 23.7463 16.5192 23.2301C16.5192 22.7139 16.9322 22.3009 17.4484 22.3009ZM2.58112 2.58112H32.3156V20.1327H2.58112V2.58112Z" fill="#3E54A1"/>
<path fill-rule="evenodd" clip-rule="evenodd" d="M17.4485 4.33627C20.1329 4.33627 22.9205 7.43362 21.9913 9.91149C21.1653 12.1829 18.1712 17.2419 17.4485 18.4808C16.8291 17.2419 14.1447 12.3894 13.1122 10.118C11.8733 7.22713 14.5577 4.33627 17.4485 4.33627ZM17.4485 6.7109C18.7907 6.7109 19.8232 7.74335 19.8232 8.98229C19.8232 10.3245 18.7907 11.3569 17.4485 11.3569C16.2096 11.3569 15.1771 10.3245 15.1771 8.98229C15.1771 7.74335 16.2096 6.7109 17.4485 6.7109Z" fill="#3E54A1"/>
</svg>
