<svg width="36" height="40" viewBox="0 0 36 40" fill="none" xmlns="http://www.w3.org/2000/svg">
<path d="M34.8953 20.1108L32.743 16.1102C32.404 15.4811 31.6193 15.2451 30.9902 15.584L26.9893 17.7368C26.3593 18.0753 26.1241 18.86 26.4626 19.4896C26.8011 20.1182 27.5867 20.3543 28.2154 20.0154L29.5984 19.272C28.5398 22.3946 26.2824 25.0116 23.2701 26.5098L23.1167 26.5846C22.9158 26.6817 22.7434 26.8294 22.6159 27.0141L18.0079 33.6932V29.1062C18.0079 29.0952 18.007 29.0838 18.0065 29.0737C18.0061 29.0504 18.0048 29.0275 18.0035 29.0042C18.0013 28.9836 17.9995 28.9629 17.9969 28.9431C17.9938 28.9198 17.9898 28.8974 17.9868 28.8754C17.9828 28.8556 17.9784 28.835 17.9745 28.8152C17.9692 28.7937 17.9639 28.7721 17.9577 28.7515C17.952 28.7317 17.9463 28.711 17.9393 28.6912C17.9322 28.6723 17.9252 28.6517 17.9173 28.6328C17.9098 28.6121 17.9015 28.5923 17.8922 28.5734C17.8834 28.5545 17.8755 28.5365 17.8659 28.5185C17.8566 28.4996 17.8456 28.4798 17.8351 28.4617C17.825 28.4446 17.8149 28.4275 17.8043 28.4103C17.7929 28.3923 17.7806 28.3743 17.7683 28.3571C17.7564 28.34 17.7445 28.3246 17.7327 28.3092C17.719 28.2921 17.7054 28.2767 17.6918 28.2604C17.6781 28.2441 17.6645 28.2296 17.6509 28.2147C17.6368 28.2002 17.6214 28.1848 17.6056 28.1707C17.5911 28.1562 17.5757 28.1426 17.5603 28.1285C17.5445 28.1149 17.5287 28.1017 17.5133 28.089C17.4961 28.0762 17.4794 28.063 17.4623 28.0511C17.4456 28.0393 17.4289 28.0278 17.4117 28.0169C17.3937 28.0059 17.3757 27.9944 17.3572 27.9834C17.3392 27.9733 17.3216 27.9645 17.3032 27.9544C17.2847 27.9456 17.2658 27.9355 17.2456 27.9276C17.2267 27.9184 17.2078 27.9105 17.188 27.9026C17.1682 27.8946 17.1488 27.888 17.1291 27.881C17.1084 27.8731 17.0869 27.8674 17.0662 27.8612C17.0464 27.8551 17.0262 27.8511 17.0064 27.8467C16.984 27.8406 16.962 27.8366 16.9405 27.8331C16.9194 27.8287 16.8991 27.8261 16.8785 27.8239C16.8556 27.8203 16.8328 27.8186 16.8112 27.8168C16.7998 27.8159 16.7884 27.8133 16.7769 27.8133C11.2663 27.5438 6.6156 23.7811 5.20311 18.4494C5.02023 17.7588 4.31156 17.3478 3.62048 17.5302C2.9294 17.7131 2.51748 18.4213 2.7008 19.1124C3.52333 22.2179 5.2796 24.9395 7.77927 26.9851C9.99319 28.7967 12.6137 29.9257 15.4194 30.2892V37.8476C15.4194 38.4143 15.7878 38.915 16.3285 39.0834C16.4551 39.1229 16.5848 39.1427 16.7132 39.1427C17.1304 39.1427 17.5326 38.9392 17.7788 38.5831L24.5555 28.7602C28.0879 26.9561 30.7357 23.8783 32.0101 20.2128L32.6155 21.3377C32.8489 21.7712 33.2951 22.0187 33.7563 22.0187C33.9634 22.0187 34.1731 21.969 34.3687 21.864C34.9982 21.5246 35.2339 20.7399 34.8953 20.1108Z" fill="#3E54A1"/>
<path d="M4.05978 14.8336L8.06119 12.6808C8.69072 12.3423 8.92635 11.5576 8.58741 10.928C8.24846 10.2985 7.46374 10.0624 6.83465 10.4022L5.45513 11.1443C7.1648 6.13399 11.9417 2.58891 17.4039 2.58891C17.4448 2.58891 17.4853 2.58627 17.5248 2.58232C17.5644 2.58627 17.6053 2.58891 17.6457 2.58891C23.366 2.58891 28.383 6.44568 29.846 11.9677C29.9999 12.5471 30.5235 12.93 31.0967 12.93C31.2062 12.93 31.3179 12.9164 31.4286 12.8865C32.1197 12.7036 32.5312 11.9954 32.3483 11.3043C30.5846 4.64808 24.5389 0 17.6462 0C17.6053 0 17.5644 0.00219806 17.5253 0.00615462C17.4853 0.00219806 17.4448 0 17.4044 0C10.8598 0 5.13289 4.22429 3.04207 10.2092L2.43407 9.08031C2.09513 8.45078 1.31085 8.21514 0.681318 8.55409C0.0517846 8.89303 -0.183851 9.67775 0.154655 10.3073L2.30746 14.3082C2.54134 14.7417 2.98755 14.9888 3.44827 14.9888C3.65489 14.9883 3.86503 14.9387 4.05978 14.8336Z" fill="#3E54A1"/>
<path d="M23.6888 21.139H11.6019C10.8871 21.139 10.3081 21.7176 10.3081 22.4328C10.3081 23.1481 10.8871 23.7266 11.6019 23.7266H23.6883C24.4031 23.7266 24.9826 23.1481 24.9826 22.4328C24.9826 21.7176 24.4036 21.139 23.6888 21.139Z" fill="#3E54A1"/>
<path d="M23.6888 17.4291H11.6019C10.8871 17.4291 10.3081 18.0085 10.3081 18.7233C10.3081 19.4382 10.8871 20.0176 11.6019 20.0176H23.6883C24.4031 20.0176 24.9826 19.4382 24.9826 18.7233C24.9826 18.0085 24.4036 17.4291 23.6888 17.4291Z" fill="#3E54A1"/>
<path d="M23.6888 13.72H11.6019C10.8871 13.72 10.3081 14.299 10.3081 15.0138C10.3081 15.7291 10.8871 16.3081 11.6019 16.3081H23.6883C24.4031 16.3081 24.9826 15.7291 24.9826 15.0138C24.983 14.299 24.4036 13.72 23.6888 13.72Z" fill="#3E54A1"/>
<path d="M23.6888 10.0101H11.6019C10.8871 10.0101 10.3081 10.5895 10.3081 11.3043C10.3081 12.0192 10.8871 12.5981 11.6019 12.5981H23.6883C24.4031 12.5981 24.9826 12.0192 24.9826 11.3043C24.9826 10.5895 24.4036 10.0101 23.6888 10.0101Z" fill="#3E54A1"/>
<path d="M11.6019 8.88908H17.6453C18.3601 8.88908 18.9391 8.30966 18.9391 7.59484C18.9391 6.88002 18.3601 6.30104 17.6453 6.30104H11.6019C10.8871 6.30104 10.3081 6.88002 10.3081 7.59484C10.3081 8.30966 10.8871 8.88908 11.6019 8.88908Z" fill="#3E54A1"/>
</svg>
