<?xml version="1.0" encoding="utf-8"?>
<!-- Generator: Adobe Illustrator 24.1.0, SVG Export Plug-In . SVG Version: 6.00 Build 0)  -->
<svg version="1.1" id="logo" xmlns="http://www.w3.org/2000/svg" xmlns:xlink="http://www.w3.org/1999/xlink" x="0px" y="0px"
	 viewBox="0 0 332.4 110.8" style="enable-background:new 0 0 332.4 110.8;" xml:space="preserve">
<style type="text/css">
	.st0{fill:#00375A;}
	.st1{fill:#FF5A46;}
</style>
<path class="st0" d="M0,55h13.9c7.1,0,12,4,12,10.6c0,7.1-5.1,10.9-12.3,10.9H4.9v15H0V55z M4.9,72.5h8.5c5,0,7.5-2.4,7.5-6.7
	c0-4.5-3-6.7-7.3-6.7H4.9L4.9,72.5z"/>
<path class="st0" d="M37.6,75.5v16.1h-4.8V55h14.3c7.5,0,11.5,4.1,11.5,9.8c0,4.8-2.7,7.6-6.2,8.6c3,0.8,5.6,3,5.6,9.4v1.6
	c0,2.5-0.1,5.7,0.5,7.2h-4.7c-0.7-1.6-0.6-4.4-0.6-7.9v-0.8c0-5.2-1.5-7.5-8-7.5H37.6z M37.6,71.4h8c5.6,0,8.1-2.1,8.1-6.2
	c0-3.9-2.5-6.1-7.5-6.1h-8.5V71.4z"/>
<path class="st0" d="M98.6,73.1c0,10.1-5.6,19-17.2,19c-10.8,0-16.8-8.3-16.8-18.8s6.1-18.8,17.2-18.8
	C92.1,54.5,98.6,62.2,98.6,73.1z M69.7,73.1c0,7.9,4,14.8,11.9,14.8c8.5,0,11.9-7,11.9-14.8s-3.8-14.5-11.9-14.5
	C73.3,58.6,69.7,65.3,69.7,73.1L69.7,73.1z"/>
<path class="st0" d="M113.9,80.9c0,8.3-3.3,11.2-9.4,11.2c-1.3,0-2.6-0.1-3.9-0.4v-4c1.1,0.2,2.3,0.2,3.4,0.2c4.4,0,5-3.3,5-6.9V55
	h4.9L113.9,80.9z"/>
<path class="st0" d="M146.3,74.5h-18.2v13h19.7v4.2h-24.4V55h23.8v4.2h-19.1v11.2h18.2V74.5z"/>
<path class="st0" d="M183.8,81.2c-1.6,6.2-6.3,10.8-14.6,10.8c-10.9,0-16.5-8.3-16.5-18.6c0-9.9,5.5-18.9,16.6-18.9
	c8.6,0,13.3,4.9,14.4,11H179c-1.3-4-3.9-7-9.7-7c-8.1,0-11.4,7.3-11.4,14.7c0,7.2,3.1,14.7,11.6,14.7c5.6,0,8.1-3.2,9.5-6.8
	L183.8,81.2z"/>
<path class="st0" d="M198.8,59.1H187V55h28.5v4.2h-11.8v32.4h-4.9V59.1z"/>
<path class="st0" d="M221.8,91.6V55h11.4l10.8,23.4L243.4,55h9.2v36.5h-10.9l-11.1-24.5l0.3,24.5H221.8z"/>
<path class="st0" d="M268.2,82.5c0.3,1.7,1.3,3.3,3.5,3.3c3.4,0,4-5.1,4.2-9.3c-1.4,1.7-4.1,2.3-6.5,2.3c-6.6,0-11.5-4.4-11.5-11.4
	c0-7.9,5.5-13,13.7-13c10.5,0,14.3,7.3,14.3,17.5c0,11.8-3.6,20.2-14.6,20.2c-9.4,0-12.3-5.1-12.8-9.6L268.2,82.5z M267.6,66.4
	c0,3.7,1.9,5.8,4.3,5.8c2.2,0,4.2-1.5,4.2-5.2c0-3.7-1.4-6.3-4.3-6.3C269.3,60.7,267.6,62.9,267.6,66.4z"/>
<path class="st0" d="M316.4,62.7H301c-0.1,1.4-0.6,4.9-0.7,5.9c1.2-1,3.1-1.8,6.5-1.8c7.5,0,11.2,5.3,11.2,11.9
	c0,8.6-5.3,13.5-14.4,13.5c-8.5,0-13-4-13.6-10.9h9.7c0.4,2.6,1.5,4.4,4,4.4c3.1,0,4.4-2.5,4.4-6.4c0-3.6-1.5-6-4.6-6
	c-2.5,0-3.5,1.3-4.4,3.4l-8.5-0.9c0.8-4.4,2.3-16.3,2.8-20.8h23.1L316.4,62.7z"/>
<polygon class="st1" points="221.8,0 221.8,44.9 230.9,44.9 230.9,9.1 323.4,9.1 323.4,101.7 221.8,101.7 221.8,110.8 332.4,110.8 
	332.4,0 "/>
</svg>
